<?xml version="1.0" standalone="no"?>
<!DOCTYPE svg PUBLIC "-//W3C//DTD SVG 20010904//EN"
 "http://www.w3.org/TR/2001/REC-SVG-20010904/DTD/svg10.dtd">
<svg version="1.0" xmlns="http://www.w3.org/2000/svg"
 width="700.000000pt" height="700.000000pt" viewBox="0 0 700.000000 700.000000"
 preserveAspectRatio="xMidYMid meet">
<metadata>
Created by potrace 1.14, written by Peter Selinger 2001-2017
</metadata>
<g transform="translate(0.000000,700.000000) scale(0.100000,-0.100000)"
fill="#000000" stroke="none">
<path d="M3285 6994 c-22 -2 -89 -9 -150 -14 -585 -57 -1178 -282 -1670 -633
-294 -210 -602 -518 -813 -813 -350 -491 -560 -1044 -634 -1669 -16 -139 -16
-595 0 -730 67 -550 225 -1016 499 -1465 140 -228 284 -412 487 -618 577 -588
1293 -935 2131 -1034 144 -16 586 -16 735 1 689 78 1331 348 1854 779 127 105
340 316 451 447 450 532 722 1170 807 1890 7 62 13 220 13 365 0 334 -25 545
-100 847 -158 636 -478 1190 -956 1658 -555 543 -1252 876 -2028 971 -119 14
-540 27 -626 18z m472 -355 c753 -63 1434 -379 1968 -914 728 -727 1050 -1737
879 -2755 -91 -542 -333 -1066 -688 -1490 -713 -852 -1816 -1265 -2916 -1089
-865 137 -1638 636 -2124 1369 -759 1144 -691 2641 170 3715 105 131 313 342
440 447 641 529 1455 786 2271 717z"/>
<path d="M2535 4831 c-138 -22 -241 -74 -338 -169 -73 -72 -112 -133 -144
-224 -22 -62 -26 -91 -26 -188 0 -167 28 -265 117 -398 93 -140 241 -263 501
-417 317 -187 456 -317 499 -464 20 -67 20 -164 2 -253 -40 -187 -165 -316
-345 -354 -83 -17 -145 -17 -244 1 -225 40 -371 182 -473 460 -20 55 -38 106
-40 113 -2 6 -15 12 -29 12 l-26 0 8 -142 c10 -177 10 -211 0 -376 l-8 -132
34 0 c55 0 137 64 193 148 1 2 23 -12 48 -31 59 -46 135 -81 232 -109 65 -18
104 -23 219 -23 128 0 148 3 229 29 325 107 501 423 430 774 -48 241 -231 444
-579 647 -266 155 -454 311 -504 419 -51 110 -49 267 3 382 33 72 108 149 181
188 58 30 64 31 185 31 120 0 128 -1 192 -32 151 -71 276 -237 352 -470 23
-70 31 -83 49 -83 l22 0 0 325 0 325 -23 0 c-41 0 -90 -30 -142 -87 -28 -30
-50 -59 -50 -65 0 -5 -19 7 -42 27 -49 42 -181 108 -249 124 -66 15 -176 21
-234 12z"/>
<path d="M3962 4440 l-132 -91 -2 -202 -3 -202 -147 -3 -148 -3 0 -34 0 -35
150 0 149 0 3 -627 3 -628 36 -76 c83 -174 259 -270 470 -256 174 11 309 137
348 325 17 80 15 92 -14 92 -19 0 -26 -6 -30 -27 -32 -158 -75 -236 -157 -282
-164 -94 -322 -5 -367 207 -7 36 -11 253 -11 662 l0 610 200 0 200 0 0 35 0
35 -200 0 -200 0 0 295 c0 162 -4 295 -8 295 -5 0 -67 -41 -140 -90z"/>
<path d="M4985 2664 c-69 -36 -105 -96 -105 -174 0 -108 81 -190 187 -190 123
0 199 83 191 206 -3 52 -9 70 -34 100 -16 20 -45 45 -64 55 -43 24 -133 25
-175 3z"/>
</g>
</svg>
