<svg width="72" height="72" viewBox="0 0 72 72" fill="none" xmlns="http://www.w3.org/2000/svg">
<circle cx="36" cy="36" r="36" fill="#2F80ED"/>
<path d="M44.7519 46.3437L44.5355 50.0214C48.2672 50.9949 50.4306 52.4551 50.4306 53.3745C50.4306 54.8888 45.0223 57.7011 36.2067 57.7011C27.3371 57.7011 21.9829 54.8888 21.9829 53.3745C21.9829 52.401 24.0922 50.9408 27.878 50.0214L27.6616 46.3437C22.2534 47.5335 18.3053 49.9132 18.3053 53.3745C18.3053 58.6205 27.2831 61.3788 36.1527 61.3788C45.0223 61.3788 54 58.6205 54 53.3745C54 49.9132 50.052 47.5335 44.7519 46.3437Z" fill="white"/>
<path d="M27.3372 37.9609C28.3648 38.1772 29.3923 38.3395 30.474 38.5017L31.2312 51.5898C31.2852 52.6174 32.1506 53.4286 33.1781 53.4286H39.1273C40.1548 53.4286 41.0202 52.6174 41.0742 51.5898L41.8314 38.5017C42.9131 38.3395 43.9406 38.1772 44.9682 37.9609C45.6713 37.7986 46.158 37.0956 46.0499 36.3925L45.4009 30.7679C44.9682 27.3066 42.0477 24.7106 38.5864 24.7106H33.7731C30.3117 24.7106 27.3913 27.3066 26.9586 30.7679L26.2555 36.3925C26.1474 37.0956 26.6341 37.7986 27.3372 37.9609Z" fill="white"/>
<path d="M36.1527 22.9799C39.737 22.9799 42.6426 20.0743 42.6426 16.49C42.6426 12.9057 39.737 10 36.1527 10C32.5684 10 29.6627 12.9057 29.6627 16.49C29.6627 20.0743 32.5684 22.9799 36.1527 22.9799Z" fill="white"/>
</svg>
