<svg width="72" height="72" viewBox="0 0 72 72" fill="none" xmlns="http://www.w3.org/2000/svg">
<circle cx="36" cy="36" r="36" fill="#F65A44"/>
<path d="M47.3561 28.2518L44.8008 30.807C44.5551 31.0527 44.5551 31.495 44.8499 31.7407C48.2897 34.7873 50.1079 39.603 48.9285 44.7135C47.7983 49.4309 43.9654 53.3129 39.1989 54.3939C30.5995 56.3595 22.8846 49.824 22.8846 41.5685C22.8846 37.6865 24.6045 34.1485 27.3072 31.7407C27.602 31.495 27.602 31.0527 27.3563 30.807L24.8011 28.2518C24.5554 28.0061 24.1131 28.0061 23.8674 28.2026C19.4449 32.2812 17.037 38.5219 18.3638 45.254C19.7397 52.1827 25.2925 57.7845 32.172 59.2587C43.8672 61.7157 54.1864 52.8215 54.1864 41.5685C54.1864 36.2615 51.926 31.495 48.2897 28.2026C48.044 27.9569 47.6017 28.0061 47.3561 28.2518Z" fill="white"/>
<path d="M34.8747 31.8389C35.5135 32.4778 36.5946 32.4778 37.2334 31.8389L45.931 23.1413C48.388 20.6843 48.2406 16.5566 45.4888 14.2962C43.081 12.3306 39.4938 12.6746 37.2825 14.8858L36.1032 16.1635L34.629 14.7384C32.172 12.2815 28.0443 12.4289 25.7839 15.1807C23.8183 17.5885 24.1623 21.1757 26.3736 23.387L34.8747 31.8389Z" fill="white"/>
</svg>
