<svg width="72" height="72" viewBox="0 0 72 72" fill="none" xmlns="http://www.w3.org/2000/svg">
<circle cx="36" cy="36" r="36" fill="#2F80ED"/>
<path d="M38.7982 42.5637H42.7124V61.718C42.7124 62.7992 43.5902 63.6757 44.6702 63.6757C45.752 63.6757 46.6279 62.7992 46.6279 61.718L46.9971 10.7034C40.0066 10.7028 38.7982 42.5637 38.7982 42.5637Z" fill="white"/>
<path d="M34.7171 10.7957C34.2024 10.7957 33.785 11.2138 33.7862 11.7278V27.8138L32.3883 27.8132V11.7278C32.3883 11.2138 31.9703 10.7963 31.4562 10.7957C30.9416 10.7957 30.5241 11.2138 30.5241 11.7278V27.8138H29.1263V11.7278C29.125 11.2138 28.7082 10.7957 28.1942 10.797C27.6783 10.7963 27.2633 11.2144 27.2621 11.7284V27.8138H25.863V11.7278C25.863 11.2138 25.4461 10.7957 24.9321 10.7963C24.4162 10.7963 24 11.2138 24 11.7284V29.469C24 29.9873 24.0764 30.4867 24.2078 30.9628C24.709 32.7714 26.0916 34.2114 27.8678 34.7878V61.7186C27.8678 62.7998 28.7455 63.6757 29.8255 63.6757C30.9061 63.6757 31.7832 62.7998 31.782 61.7186L31.7832 34.7878C33.5594 34.212 34.942 32.772 35.4432 30.9628C35.5758 30.4861 35.6498 29.9867 35.651 29.469V11.7278C35.6492 11.2138 35.2311 10.7963 34.7171 10.7957Z" fill="white"/>
</svg>
