<svg width="72" height="72" viewBox="0 0 72 72" fill="none" xmlns="http://www.w3.org/2000/svg">
<circle cx="36" cy="36" r="36" fill="#F0C119"/>
<path d="M53.9722 53H19.0278C18.4602 53 18 53.4975 18 54.1112V56.3334C18 56.947 18.4602 57.4445 19.0278 57.4445H53.9722C54.5398 57.4445 55 56.947 55 56.3334V54.1112C55 53.4975 54.5398 53 53.9722 53Z" fill="white"/>
<path d="M52.6875 47.5C52.6865 46.5721 52.3207 45.6824 51.6704 45.0262C51.0201 44.3701 50.1384 44.001 49.2188 44H23.7812C22.8616 44.001 21.9799 44.3701 21.3296 45.0262C20.6793 45.6824 20.3135 46.5721 20.3125 47.5V51H52.6875V47.5Z" fill="white"/>
<path d="M47.1375 16C47.1375 14.3432 45.7927 13 44.1359 13C39.59 13 38.2493 13.0001 36.5 13.0001C34.8438 13.0001 32.4216 13 28.8638 13C27.2069 13 25.8625 14.3432 25.8625 16V42H47.1375V16Z" fill="white"/>
</svg>
