<svg width="72" height="72" viewBox="0 0 72 72" fill="none" xmlns="http://www.w3.org/2000/svg">
<circle cx="36" cy="35.9998" r="36" fill="#2F80ED"/>
<path d="M54.6255 45.3234C53.3746 45.7738 51.3732 46.3241 49.1717 46.8245C48.3711 48.1254 46.9201 49.1761 44.6685 49.6265C44.1181 49.7265 43.5677 49.7766 42.9173 49.7766C41.3662 49.8266 39.5149 49.6765 37.4634 49.4764C37.3133 49.4764 37.1632 49.4764 37.0631 49.4263C36.5628 49.3763 36.1125 49.026 36.1125 48.5257C36.0624 47.8752 36.5628 47.3749 37.2132 47.4249C37.3634 47.4249 37.5135 47.475 37.7136 47.475C40.3655 47.7251 42.8172 47.9253 44.4183 47.6251C47.3204 47.0747 48.171 45.3234 47.9708 43.8224C47.8207 42.6215 46.9201 41.4207 45.4691 41.5708C43.4176 41.7209 41.0159 41.5708 38.7143 41.3707C36.0624 41.1705 33.3105 41.1205 31.3591 41.3206C29.2076 41.5708 24.8045 43.1719 20.9018 45.8238C19.0004 47.1247 16.899 48.6758 15.598 49.5764C14.9476 50.0768 14.7975 50.9774 15.2978 51.6279L20.8517 58.983C21.3521 59.6335 22.2527 59.7336 22.8531 59.2332L24.9546 57.6321C25.455 57.2318 26.1054 57.1317 26.7059 57.3319C30.5085 58.5327 34.5614 59.3333 37.2132 59.4834C43.0173 59.7836 54.1251 52.9288 57.3274 50.7272C60.4796 48.4757 58.178 44.0225 54.6255 45.3234Z" fill="white"/>
<path d="M30.4084 27.9612H32.4599C32.7101 28.8118 33.0103 29.6124 33.4606 30.3629L32.0096 31.7639C31.6593 32.1141 31.6593 32.6645 32.0096 33.0148L34.7615 35.7667C35.1118 36.117 35.6621 36.117 36.0124 35.7667L37.4634 34.3157C38.2139 34.716 39.0145 35.0662 39.8651 35.3164V37.3178C39.8651 37.8182 40.2654 38.2184 40.7657 38.2184H44.6184C45.1188 38.2184 45.5191 37.8182 45.5191 37.3178V35.2664C46.3697 35.0162 47.1702 34.716 47.9208 34.2657L49.3218 35.7167C49.672 36.0669 50.2224 36.0669 50.5726 35.7167L53.3246 32.9647C53.6748 32.6145 53.6748 32.0641 53.3246 31.7139L51.8735 30.3129C52.2738 29.5624 52.6241 28.7618 52.8743 27.9112H54.8757C55.376 27.9112 55.7763 27.5109 55.7763 27.0106V23.1578C55.7763 22.6575 55.376 22.2572 54.8757 22.2572H52.8242C52.574 21.4066 52.2738 20.6061 51.8235 19.8555L53.2745 18.4045C53.6248 18.0543 53.6248 17.5039 53.2745 17.1536L50.5226 14.4017C50.1723 14.0514 49.622 14.0514 49.2717 14.4017L47.8707 15.9027C47.1202 15.5025 46.3196 15.1522 45.469 14.902V12.9006C45.469 12.4003 45.0688 12 44.5684 12H40.7157C40.2153 12 39.8151 12.4003 39.8151 12.9006V14.9521C38.9645 15.2023 38.1639 15.5025 37.4134 15.9528L35.9624 14.5518C35.6121 14.2015 35.0617 14.2015 34.7115 14.5518L31.9595 17.3037C31.6093 17.654 31.6093 18.2044 31.9595 18.5546L33.4106 20.0056C33.0103 20.7562 32.66 21.5567 32.4099 22.4073H30.4084C29.9081 22.4073 29.5078 22.8076 29.5078 23.308V27.1607C29.5078 27.5609 29.9081 27.9612 30.4084 27.9612ZM42.617 18.5546C46.2196 18.5546 49.1716 21.5067 49.1716 25.1092C49.1716 28.7118 46.2196 31.6638 42.617 31.6638C39.0145 31.6638 36.0624 28.7118 36.0624 25.1092C36.0624 21.5067 39.0145 18.5546 42.617 18.5546Z" fill="white"/>
<path d="M40.9158 27.9112C41.1159 28.1614 41.4161 28.2614 41.7664 28.2614C42.0666 28.2614 42.3668 28.1113 42.617 27.9112L46.3696 23.8583C46.8199 23.408 46.7699 22.6575 46.3196 22.2572C45.8693 21.8069 45.1187 21.8569 44.7185 22.3073L41.8164 25.4595L40.6656 24.2086C40.2153 23.7583 39.5148 23.7082 39.0645 24.1586C38.6142 24.6089 38.5641 25.3094 39.0144 25.7597L40.9158 27.9112Z" fill="white"/>
</svg>
