<svg width="72" height="72" viewBox="0 0 72 72" fill="none" xmlns="http://www.w3.org/2000/svg">
<circle cx="36" cy="36" r="36" fill="#1EAF61"/>
<mask id="mask0" mask-type="alpha" maskUnits="userSpaceOnUse" x="5" y="5" width="62" height="62">
<circle cx="36" cy="36" r="31" fill="white"/>
</mask>
<g mask="url(#mask0)">
<path d="M18.2448 32.2508C22.918 32.2508 26.7064 28.4624 26.7064 23.7892C26.7064 19.116 22.918 15.3276 18.2448 15.3276C13.5716 15.3276 9.7832 19.116 9.7832 23.7892C9.7832 28.4624 13.5716 32.2508 18.2448 32.2508Z" fill="white"/>
<path d="M73.7846 15.4858H38.2775C36.5377 15.4858 35.1143 16.9092 35.1143 18.649V43.7175C35.1143 43.7175 35.1143 43.7175 35.1143 43.7966C35.6678 43.9547 36.6959 43.9591 38.2775 43.9591V18.649H73.7846V47.4343H45.6389C45.7971 47.9087 45.9054 48.4016 45.8276 49.0567C45.7392 49.8016 45.2766 50.4451 45.2377 50.5975H73.7846C75.5243 50.5975 76.9478 49.174 76.9478 47.4343V18.649C76.9478 16.9092 75.5243 15.4858 73.7846 15.4858Z" fill="white"/>
<path d="M6.52184 55.3728C7.91551 55.6706 8.73685 55.8156 10.2039 56.039V66.6114C10.2772 68.0262 11.4508 69.1432 12.8445 69.1432H23.7747C25.1684 69.1432 28.0247 68.0262 28.098 66.6114L26.0199 47.1179C26.4153 47.5133 28.3924 49.4903 31.1602 50.5492C33.6647 51.3623 38.0872 51.3538 40.984 51.2391C42.5876 51.1756 43.813 49.8402 43.813 48.2353C43.813 46.5263 42.4279 45.1409 40.7189 45.1409C39.1978 45.1409 37.3796 45.1409 35.905 45.1409C32.7418 45.1409 31.5556 42.3731 31.5556 42.3731C29.5786 37.2329 28.3924 34.465 21.8081 34.465H15.2799C10.5854 34.465 6.62443 38.0393 6.03762 42.805L5.08405 50.5492C4.87612 52.8105 4.95119 55.0371 6.52184 55.3728Z" fill="white"/>
<path d="M73.9402 22.9984H44.2083C43.3384 22.9984 42.6267 23.7101 42.6267 24.58C42.6267 25.4499 43.3384 26.1616 44.2083 26.1616H73.9402C74.8101 26.1616 75.5218 25.4499 75.5218 24.58C75.5218 23.7101 74.8101 22.9984 73.9402 22.9984Z" fill="white"/>
<path d="M75.1576 30.6692H53.3817C52.5118 30.6692 51.8 31.3809 51.8 32.2508C51.8 33.1207 52.5118 33.8324 53.3817 33.8324H75.1576C76.0275 33.8324 76.7392 33.1207 76.7392 32.2508C76.7392 31.3809 76.0275 30.6692 75.1576 30.6692Z" fill="white"/>
<path d="M75.1576 38.34H53.3817C52.5118 38.34 51.8 39.0517 51.8 39.9216C51.8 40.7915 52.5118 41.5032 53.3817 41.5032H75.1576C76.0275 41.5032 76.7392 40.7915 76.7392 39.9216C76.7392 39.0517 76.0275 38.34 75.1576 38.34Z" fill="white"/>
<path d="M47.9539 29.7064L43.813 45.1409C43.813 45.1409 43.373 44.7352 42.5902 44.3552C41.8074 43.9752 41.0452 43.9547 41.0452 43.9547L46.339 29.2076C46.4763 28.8252 46.8809 28.609 47.2751 28.7076L47.3819 28.7343C47.8108 28.8415 48.0685 29.2795 47.9539 29.7064Z" fill="white"/>
</g>
</svg>
