<svg width="72" height="72" viewBox="0 0 72 72" fill="none" xmlns="http://www.w3.org/2000/svg">
<circle cx="36" cy="36" r="36" fill="#2F80ED"/>
<path d="M13.5508 50.5613C13.5508 51.4733 13.9131 52.3479 14.558 52.9928C15.2028 53.6377 16.0775 54 16.9895 54H54.9875C55.8995 54 56.7741 53.6377 57.419 52.9928C58.0639 52.3479 58.4262 51.4733 58.4262 50.5613V35.9868H13.5508V50.5613Z" fill="white"/>
<path d="M54.9875 22.9712H45.5768C45.4207 21.195 44.6053 19.5416 43.291 18.3366C41.9767 17.1316 40.2589 16.4623 38.4759 16.4605H33.5241C31.741 16.4623 30.0232 17.1316 28.709 18.3366C27.3947 19.5416 26.5792 21.195 26.4231 22.9712H17.0125C16.1005 22.9712 15.2258 23.3335 14.5809 23.9784C13.936 24.6233 13.5737 25.4979 13.5737 26.4099V33.4078H58.4492V26.4329C58.4522 25.9774 58.3647 25.5259 58.1919 25.1045C58.019 24.6832 57.7641 24.3004 57.4421 23.9783C57.12 23.6563 56.7372 23.4014 56.3158 23.2285C55.8945 23.0556 55.4429 22.9682 54.9875 22.9712ZM29.432 22.9712C29.7415 20.6787 31.1514 19.458 33.5241 19.458H38.4759C40.8715 19.458 42.2585 20.6558 42.568 22.9712H29.432Z" fill="white"/>
</svg>
