<svg width="72" height="72" viewBox="0 0 72 72" fill="none" xmlns="http://www.w3.org/2000/svg">
<circle cx="36" cy="36" r="36" fill="#2F80ED"/>
<path d="M29.7 14H21.5C20.3954 14 19.5 14.8954 19.5 16V28.79C19.5 29.3251 19.7519 29.8289 20.18 30.15C23.0476 32.3264 26.2678 33.9939 29.7 35.08V14Z" fill="white"/>
<path d="M43.3 14V35.08C46.7346 33.9835 49.9549 32.3044 52.82 30.116C53.2481 29.7949 53.5 29.2911 53.5 28.756V16C53.5 14.8954 52.6046 14 51.5 14H43.3Z" fill="white"/>
<path d="M39.9 35.862V14H33.1V35.862C33.7862 35.9776 34.4788 36.0514 35.174 36.083L25.2844 38.9149C24.4263 39.1607 23.835 39.9452 23.835 40.8377V54.392C23.8574 55.3494 24.1612 56.279 24.7084 57.065C25.2555 57.851 26.0219 58.4586 26.912 58.812L35.7113 62.5876C36.2149 62.8037 36.785 62.8037 37.2886 62.5876L46.088 58.812C46.978 58.4586 47.7444 57.851 48.2916 57.065C48.8387 56.279 49.1425 55.3494 49.165 54.392V40.8398C49.165 39.9463 48.5722 39.1612 47.7129 38.9164L37.826 36.1C38.5215 36.0628 39.2141 35.9833 39.9 35.862ZM42.2937 45.9303C42.7049 45.9841 42.8756 46.4863 42.5824 46.7796L40.0831 49.2789C39.9683 49.3937 39.9163 49.5572 39.9439 49.7172L40.5261 53.0992C40.5966 53.5086 40.1661 53.8204 39.7991 53.6258L36.7324 51.9993C36.5869 51.9221 36.4127 51.9216 36.2667 51.9978L33.1966 53.6012C32.8297 53.7929 32.4022 53.4811 32.4724 53.0732L33.056 49.6832C33.0836 49.5232 33.0317 49.3597 32.9168 49.2449L30.4111 46.7392C30.119 46.4471 30.2871 45.9469 30.6963 45.8903L34.116 45.4178C34.2782 45.3954 34.4192 45.295 34.4934 45.149L36.0506 42.0843C36.2366 41.7183 36.76 41.72 36.9436 42.0872L38.5061 45.2123C38.5804 45.3609 38.7237 45.4629 38.8884 45.4845L42.2937 45.9303Z" fill="white"/>
</svg>
