<svg width="72" height="72" viewBox="0 0 72 72" fill="none" xmlns="http://www.w3.org/2000/svg">
<circle cx="36" cy="36.0001" r="36" fill="#63C924"/>
<path fill-rule="evenodd" clip-rule="evenodd" d="M48.9556 30.3979C49.9121 39.3878 42.4173 38.9677 42.4173 52.4184C42.4173 53.7569 41.3215 54.852 39.9837 54.852H32.0171C30.6793 54.852 29.5842 53.7569 29.5842 52.4184C29.5842 38.967 22.0887 39.3885 23.0459 30.3979C24.6013 15.7861 47.3995 15.7861 48.9556 30.3979ZM36.8068 24.1304C36.4384 23.4991 35.5695 23.4173 35.2105 24.1023L32.9047 28.5057L28.0001 29.3409C27.2949 29.4615 26.999 30.3283 27.5031 30.8438L30.983 34.402L30.2606 39.3289C30.1579 40.0341 30.8947 40.5791 31.5403 40.2595L36.0011 38.0492L40.4217 40.2402C41.0658 40.5999 41.8507 40.0592 41.7437 39.3289L41.0192 34.402L44.4711 30.8726C45.0096 30.3685 44.7245 29.4629 44.0021 29.3394L39.0975 28.5057L36.8068 24.1304ZM37.7238 29.7265C37.8552 29.9757 38.0936 30.1459 38.3715 30.1933L42.0238 30.8194L39.4279 33.475C39.2361 33.6696 39.1816 34.2203 39.2189 34.4774L39.7223 37.8977L36.3953 36.2497C36.1462 36.1262 35.8553 36.1276 35.6061 36.2504L32.2792 37.8977L32.8199 34.2261C32.863 33.9302 32.7546 33.6322 32.5111 33.411L29.9763 30.8187L33.6328 30.1968C33.9315 30.1466 34.1822 29.9527 34.32 29.6446L36.0011 26.4362L37.7238 29.7265ZM34.641 10.4911C34.641 8.70306 37.3597 8.70306 37.3597 10.4911V16.1023C37.3597 17.8897 34.641 17.8897 34.641 16.1023V10.4911ZM18.724 17.7956C17.4601 16.5318 19.3832 14.6094 20.6471 15.874L24.6145 19.8408C25.8784 21.1053 23.9568 23.0277 22.6922 21.7638L18.724 17.7956ZM13.3419 34.509C11.5545 34.509 11.5545 31.7903 13.3419 31.7903H18.9531C20.7404 31.7903 20.7404 34.509 18.9531 34.509H13.3419ZM20.6471 50.4253C19.3832 51.6899 17.4601 49.7668 18.724 48.503L22.6922 44.5355C23.9568 43.2716 25.8784 45.194 24.6145 46.4578L20.6471 50.4253ZM53.2768 48.503C54.5406 49.7668 52.6183 51.6899 51.3544 50.4253L47.3862 46.4578C46.1224 45.194 48.0447 43.2716 49.3093 44.5355L53.2768 48.503ZM58.6589 31.7903C60.447 31.7903 60.447 34.509 58.6589 34.509H53.0484C51.2604 34.509 51.2604 31.7903 53.0484 31.7903H58.6589ZM51.3544 15.874C52.6183 14.6094 54.5406 16.5318 53.2768 17.7956L49.3093 21.7638C48.0447 23.0277 46.1224 21.1053 47.3862 19.8408L51.3544 15.874ZM31.1676 56.5536H40.8332C41.6037 56.5536 42.2335 57.1841 42.2335 57.9539V59.0109C42.2335 59.7807 41.6037 60.4105 40.8332 60.4105H31.1676C30.3978 60.4105 29.768 59.7807 29.768 59.0109V57.9539C29.768 57.1841 30.3978 56.5536 31.1676 56.5536Z" fill="white"/>
</svg>
