<svg width="72" height="72" viewBox="0 0 72 72" fill="none" xmlns="http://www.w3.org/2000/svg">
<circle cx="36" cy="36" r="36" fill="#63C924"/>
<path d="M22.9227 46.1052C25.7132 46.1052 27.9754 43.8431 27.9754 41.0526C27.9754 38.2621 25.7132 36 22.9227 36C20.1323 36 17.8701 38.2621 17.8701 41.0526C17.8701 43.8431 20.1323 46.1052 22.9227 46.1052Z" fill="white"/>
<path d="M24.7649 47.4737H21.028C18.3438 47.4737 16.028 49.4737 15.7122 52.2105L15.1859 56.5789C15.1333 57.1579 15.5017 57.6842 16.028 57.7895C18.1859 58.2631 20.5017 58.4737 22.8701 58.4737C23.8175 58.4737 24.8175 58.421 25.7122 58.3684L26.1859 54.4737C26.4491 52.4737 27.4491 50.6842 28.9228 49.5263C27.9754 48.2105 26.4491 47.4737 24.7649 47.4737Z" fill="white"/>
<path d="M48.3965 46.1052C51.187 46.1052 53.4491 43.8431 53.4491 41.0526C53.4491 38.2621 51.187 36 48.3965 36C45.606 36 43.3439 38.2621 43.3439 41.0526C43.3439 43.8431 45.606 46.1052 48.3965 46.1052Z" fill="white"/>
<path d="M55.607 52.1579C55.2912 49.4737 52.9754 47.421 50.2912 47.421H46.5544C44.8702 47.421 43.3439 48.2105 42.3965 49.421C43.8702 50.6316 44.8702 52.3684 45.1333 54.3684L45.607 58.2631C46.5544 58.3684 47.5017 58.3684 48.4491 58.3684C50.8702 58.3684 53.1333 58.1052 55.2912 57.6842C55.8702 57.5789 56.186 57.0526 56.1333 56.4737L55.607 52.1579Z" fill="white"/>
<path d="M37.5544 50H33.8176C31.1334 50 28.8176 52 28.5018 54.7368L27.9755 59.1052C27.9228 59.6842 28.2912 60.2105 28.8176 60.3158C30.9755 60.7895 33.2912 61 35.6597 61C38.0281 61 40.3439 60.7368 42.5018 60.3158C43.0807 60.2105 43.4491 59.6842 43.3439 59.1052L42.8176 54.7368C42.5018 52 40.2386 50 37.5544 50Z" fill="white"/>
<path d="M35.6596 48.6316C38.4501 48.6316 40.7122 46.3694 40.7122 43.5789C40.7122 40.7884 38.4501 38.5263 35.6596 38.5263C32.8691 38.5263 30.6069 40.7884 30.6069 43.5789C30.6069 46.3694 32.8691 48.6316 35.6596 48.6316Z" fill="white"/>
<path d="M39.8176 22.9473C39.4491 22.5263 38.7649 22.5263 38.3965 22.9473L36.9755 24.421L34.2912 21.5789C33.9228 21.1579 33.2386 21.1579 32.8702 21.5789L27.1333 27.6316C26.8702 27.8947 26.7649 28.3684 26.9228 28.6842C27.0807 29.0526 27.4491 29.2631 27.8176 29.2631H43.5018C43.9228 29.2631 44.2386 29.0526 44.3965 28.6842C44.5544 28.3158 44.5018 27.8947 44.186 27.6316L39.8176 22.9473Z" fill="white"/>
<path d="M38.9228 20.6842C40.1436 20.6842 41.1333 19.6945 41.1333 18.4737C41.1333 17.2528 40.1436 16.2631 38.9228 16.2631C37.702 16.2631 36.7123 17.2528 36.7123 18.4737C36.7123 19.6945 37.702 20.6842 38.9228 20.6842Z" fill="white"/>
<path d="M23.8175 33.6316H47.5017C48.607 33.6316 49.5017 32.7368 49.5017 31.6316V13C49.5017 11.8947 48.607 11 47.5017 11H23.8175C22.7122 11 21.8175 11.8947 21.8175 13V31.6316C21.8175 32.7368 22.7122 33.6316 23.8175 33.6316ZM23.9754 13.1579H47.3438V31.4737H23.9754V13.1579Z" fill="white"/>
</svg>
