<svg width="30" height="40" viewBox="0 0 30 40" xmlns="http://www.w3.org/2000/svg">
  <g fill="none">
    <circle cx="15" cy="15" r="15" fill="#515060"/>
    <circle cx="15" cy="15" r="12.5" stroke="white"/>
    <circle cx="15" cy="38" r="2" fill="#515060"/>
    <path d="M17 30L15 34L13 30H17Z" fill="#515060" stroke="#515060"/>
    <path d="M19.8796 13.0425L21.3786 14.5414V13.0425H19.8796Z" fill="white"/>
    <path
      d="M17.5717 13.0425H15.6165L18.0972 15.5231H15.7896L13.3089 13.0425H11.2313L13.712 15.5231H11.4044L9.26194 13.3807C9.23649 13.4435 9.22217 13.512 9.22217 13.5839V20.3201C9.22217 20.6956 9.52656 21 9.90205 21H20.6984C21.0739 21 21.3783 20.6956 21.3783 20.3201V15.5231H20.0523L17.5717 13.0425Z"
      fill="white"/>
    <path d="M19.3335 9L17.2774 9.29791L15.178 12.1086L17.2342 11.8107L19.3335 9Z" fill="white"/>
    <path d="M14.9936 9.62878L13.0586 9.90911L10.9592 12.7198L12.8943 12.4395L14.9936 9.62878Z" fill="white"/>
    <path
      d="M21.2368 10.6838L21.0542 9.42322L19.5181 11.4798L20.7786 11.2972C21.0745 11.2543 21.2797 10.9797 21.2368 10.6838Z"
      fill="white"/>
    <path
      d="M10.7749 10.2399L9.4638 10.4299C9.16794 10.4727 8.96279 10.7474 9.00566 11.0433L9.17234 12.1938L9.19559 12.3544L9.73805 11.6281L10.7749 10.2399Z"
      fill="white"/>
  </g>
</svg>
