<svg width="30" height="40" viewBox="0 0 30 40" xmlns="http://www.w3.org/2000/svg">
  <g fill="none">
    <circle cx="15" cy="15" r="15" fill="black"/>
    <circle cx="15" cy="15" r="12.5" stroke="white"/>
    <circle cx="15" cy="38" r="2" fill="black"/>
    <path d="M17 30L15 34L13 30H17Z" fill="black" stroke="black"/>
    <path d="M20.9062 20.7695H9.09375V22H20.9062V20.7695Z" fill="white"/>
    <path d="M20.0859 18.7188H9.91406V19.9492H20.0859V18.7188Z" fill="white"/>
    <path
      d="M17.7179 8.82031C16.9103 8.2832 15.9735 8 15 8C14.0265 8 13.0897 8.2832 12.2821 8.82031H10.7344V17.8984H19.2656V8.82031H17.7179ZM16.5176 12.5117H15.4102V15H14.5898V12.5117H13.4824V11.6914H14.5898V10.7344H15.4102V11.6914H16.5176V12.5117Z"
      fill="white"/>
  </g>
</svg>
