<svg width="30" height="40" viewBox="0 0 30 40" xmlns="http://www.w3.org/2000/svg">
  <g fill="none">
    <circle cx="15" cy="15" r="15" fill="#F6C23D"/>
    <circle cx="15" cy="15" r="12.5" stroke="white"/>
    <circle cx="15" cy="38" r="2" fill="#F6C23D"/>
    <path d="M17 30L15 34L13 30H17Z" fill="#F6C23D" stroke="#F6C23D"/>
    <path d="M19.443 16.3145V20.5103V20.5242H22V17.7925L19.443 16.3145Z" fill="white"/>
    <path d="M8 20.5242H10.557V20.5103V16.3113L8 17.7925V20.5242Z" fill="white"/>
    <path
      d="M11.0085 14.8833V20.5103H13.63V18.1246C13.63 17.3764 14.2366 16.7698 14.9849 16.7698H15.015C15.7633 16.7698 16.3699 17.3764 16.3699 18.1246V20.5103H18.9913V14.8833L14.9999 11.5724L11.0085 14.8833Z"
      fill="white"/>
    <path
      d="M9.24207 14.2975L9.9193 15.1193L15 10.9328L20.0808 15.1193L20.758 14.2975L15.3162 9.81341V8.81557H16.2931V8.18331H15.3162V7.47577H14.6839V8.18331H13.707V8.81557H14.6839V9.81341L9.24207 14.2975Z"
      fill="white"/>
  </g>
</svg>
