<svg width="30" height="40" viewBox="0 0 30 40" xmlns="http://www.w3.org/2000/svg">
  <g fill="none">
    <circle cx="15" cy="15" r="15" fill="#5F0077"/>
    <circle cx="15" cy="15" r="12.5" stroke="white"/>
    <circle cx="15" cy="38" r="2" fill="#5F0077"/>
    <path d="M17 30L15 34L13 30H17Z" fill="#5F0077" stroke="#5F0077"/>
    <g clip-path="url(#clip0)">
      <path
        d="M21.344 14.7208C21.2822 14.6657 21.1995 14.6402 21.1174 14.6517L20.5178 14.7347C20.3642 14.7559 20.2215 14.649 20.2003 14.4951L20.1079 13.8382C20.0976 13.7643 20.0579 13.6977 19.9988 13.6528C19.9391 13.6077 19.864 13.5886 19.7901 13.5986L19.1375 13.691C18.9832 13.7128 18.8408 13.6056 18.819 13.4517L18.7369 12.8712C18.7263 12.7969 18.6866 12.73 18.627 12.6851C18.567 12.6406 18.4915 12.6212 18.4179 12.6318L18.1252 12.6745C18.0307 12.6885 17.9368 12.6436 17.8883 12.5609C17.8395 12.4788 17.8453 12.3752 17.9032 12.2985L17.9035 12.2982C17.9483 12.2386 17.968 12.1637 17.9577 12.0898C17.9474 12.0159 17.9077 11.9492 17.8483 11.9044L17.3363 11.5193C17.4784 10.4222 17.0324 9.32912 16.1044 8.63199C14.7171 7.58886 12.7502 7.86456 11.7071 9.25217C11.6513 9.3264 11.5995 9.40244 11.5514 9.48C10.5543 9.48394 9.39905 9.85296 8.81099 11.1418C8.08083 12.743 9.11608 14.4254 9.88563 15.3679L9.53115 15.5773C9.23939 15.75 9.14274 16.1263 9.31543 16.4174L12.4385 21.6988C12.6109 21.99 12.9871 22.0869 13.2786 21.9146L15.1267 20.8214C15.2667 20.739 15.3682 20.6036 15.4088 20.4467C15.4494 20.2888 15.4258 20.1219 15.3424 19.9816L12.2197 14.7005C12.1367 14.5602 12.0019 14.459 11.844 14.4181C11.6865 14.3778 11.5192 14.4015 11.379 14.4845L10.6885 14.8929C10.0462 14.1385 9.09639 12.7336 9.6484 11.5238C9.98712 10.7816 10.5903 10.5053 11.1566 10.4271C10.8788 11.6081 11.2923 12.8975 12.3194 13.6698C13.241 14.3627 14.3866 14.5163 15.4012 14.0758L19.3265 17.0243C19.4483 17.1161 19.6074 17.1425 19.7522 17.0949L21.0777 16.6653C21.2667 16.6044 21.3961 16.4314 21.4019 16.2323L21.4376 14.938C21.44 14.8556 21.4058 14.7762 21.344 14.7208ZM11.4629 15.7315C11.6065 15.9748 11.5262 16.2881 11.2829 16.4323C11.0399 16.5762 10.7267 16.4959 10.5825 16.2523C10.5458 16.1902 10.524 16.1239 10.5152 16.0566C10.5506 16.0908 10.574 16.1123 10.5828 16.1202C10.6712 16.2008 10.7821 16.2402 10.8927 16.2402C11.0175 16.2402 11.142 16.1896 11.2329 16.0902C11.3687 15.9415 11.3881 15.7282 11.2969 15.5606C11.3629 15.6021 11.4205 15.6597 11.4629 15.7315ZM13.6885 10.7446C13.4231 11.0982 12.9223 11.1691 12.5687 10.9034C12.423 10.7943 12.3255 10.6446 12.2794 10.4819C12.4124 10.5107 12.4981 10.5371 12.5148 10.5422C12.7554 10.621 13.015 10.4883 13.0938 10.2468C13.1726 10.0054 13.0405 9.74571 12.799 9.66694C12.7348 9.64603 12.6657 9.62604 12.5927 9.60725C12.8684 9.41577 13.2462 9.41184 13.5295 9.62482C13.8827 9.89053 13.9539 10.3916 13.6885 10.7446Z"
        fill="white"/>
    </g>
    <defs>
      <clipPath id="clip0">
        <rect width="14" height="14" fill="white" transform="translate(8 8)"/>
      </clipPath>
    </defs>
  </g>
</svg>
