<svg width="30" height="40" viewBox="0 0 30 40" xmlns="http://www.w3.org/2000/svg">
  <g fill="none">
    <circle cx="15" cy="15" r="15" fill="#ED6401"/>
    <circle cx="15" cy="15" r="12.5" stroke="white"/>
    <circle cx="15" cy="38" r="2" fill="#ED6401"/>
    <path d="M17 30L15 34L13 30H17Z" fill="#ED6401" stroke="#ED6401"/>
    <path
      d="M20.9069 8L20.7694 8.11973L20.6708 8.02098L20.5704 8.12125L20.463 8.01396L20.2754 8.20153L20.3826 8.309L20.2825 8.4093L20.3549 8.4816L19.1878 9.43767L19.2405 9.49043L16.4401 12.1276C15.4854 11.3705 14.2641 11.2782 13.5803 11.962C13.3359 12.2062 13.1028 12.6091 12.9312 13.074C12.7809 13.1817 12.6034 13.2778 12.4411 13.284C12.4411 13.284 13.0669 13.8675 12.1177 14.6479C11.1684 15.4288 10.6974 14.9856 10.4864 14.7324C10.4864 14.7324 10.4511 15.0047 10.2223 15.3172C9.58342 15.4495 8.95896 15.7159 8.55987 16.1668C7.47713 17.3904 8.13793 18.9512 9.08002 19.8933C10.2354 21.0486 11.7097 21.7637 12.9191 20.5544C13.3403 20.1333 13.6244 19.5336 13.7509 18.8898C14.0737 18.6445 14.3606 18.6069 14.3606 18.6069C14.1075 18.3959 13.6646 17.9248 14.445 16.9755C15.2254 16.0263 15.8088 16.6521 15.8088 16.6521C15.8147 16.4944 15.9059 16.322 16.0101 16.1746C16.4816 16.0024 16.8908 15.7671 17.1379 15.5202C17.8217 14.8364 17.7294 13.6149 16.9723 12.6603L19.6101 9.85893L19.662 9.91073L20.623 8.75036L20.6907 8.81781L20.7909 8.71746L20.8982 8.82492L21.0861 8.63672L20.9786 8.52943L21.0789 8.42907L20.9868 8.33703L21.1072 8.20018L20.9069 8Z"
      fill="white"/>
  </g>
</svg>
