<svg width="30" height="40" viewBox="0 0 30 40" xmlns="http://www.w3.org/2000/svg">
  <g fill="none">
    <circle cx="15" cy="15" r="15" fill="#320877"/>
    <circle cx="15" cy="15" r="12.5" stroke="white"/>
    <circle cx="15" cy="38" r="2" fill="#320877"/>
    <path d="M17 30L15 34L13 30H17Z" fill="#320877" stroke="#320877"/>
    <path
      d="M19.8449 8.00075C19.8287 8.00115 19.8126 8.00316 19.7968 8.00674L10.0884 10.4767C9.97805 10.5022 9.89916 10.5994 9.89697 10.7126V19.659H13.4118V16.0466H16.5833V19.6639H20.0981V8.24139C20.0946 8.10502 19.9813 7.99729 19.8449 8.00075ZM12.4263 14.8573H11.2283V13.6581H12.4275L12.4263 14.8573ZM12.4263 12.7405H11.2283V11.5389H12.4275L12.4263 12.7405ZM14.5394 14.8573H13.3402V13.6581H14.5394V14.8573ZM14.5394 12.7405H13.3402V11.5389H14.5394V12.7405ZM16.6549 14.8573H15.4557V13.6581H16.6549V14.8573ZM16.6549 12.738H15.4557V11.5389H16.6549V12.738ZM18.768 14.8548H17.5688V13.6556H18.768V14.8548ZM18.768 12.738H17.5688V11.5389H18.768V12.738Z"
      fill="white"/>
    <path
      d="M20.2809 20.0331H20.2759H9.71912C8.77191 20.0385 8.0054 20.8051 8 21.7523C8 21.8887 8.11059 21.9993 8.247 21.9993H21.753C21.8894 21.9993 22 21.8887 22 21.7523C21.9946 20.8051 21.2281 20.0385 20.2809 20.0331Z"
      fill="white"/>
  </g>
</svg>
