<svg width="30" height="40" viewBox="0 0 30 40" xmlns="http://www.w3.org/2000/svg">
  <g fill="none">
    <circle cx="15" cy="15" r="15" fill="#009090"/>
    <circle cx="15" cy="15" r="12.5" stroke="white"/>
    <circle cx="15" cy="38" r="2" fill="#009090"/>
    <path d="M17 30L15 34L13 30H17Z" fill="#009090" stroke="#009090"/>
    <path
      d="M15 7L22 11.375H8L15 7ZM11.0625 12.25L10.625 13.125V18.375H8.875V13.125L8.4375 12.25H11.0625ZM14.5625 12.25L14.125 13.125V18.375H12.375V13.125L11.9375 12.25H14.5625ZM18.0625 12.25L17.625 13.125V18.375H15.875V13.125L15.4375 12.25H18.0625ZM21.5625 12.25L21.125 13.125V18.375H19.375V13.125L18.9375 12.25H21.5625ZM21.5625 19.25L22 21H8L8.4375 19.25H21.5625ZM14.125 9.625C14.125 10.1082 14.5168 10.5 15 10.5C15.4832 10.5 15.875 10.1082 15.875 9.625C15.875 9.14175 15.4832 8.75 15 8.75C14.5168 8.75 14.125 9.14175 14.125 9.625Z"
      fill="white"/>
  </g>
</svg>
