<svg width="30" height="40" viewBox="0 0 30 40" xmlns="http://www.w3.org/2000/svg">
  <g fill="none">
    <circle cx="15" cy="15" r="15" fill="#AE3D3F"/>
    <circle cx="15" cy="15" r="12.5" stroke="white"/>
    <circle cx="15" cy="38" r="2" fill="#AE3D3F"/>
    <path d="M17 30L15 34L13 30H17Z" fill="#AE3D3F" stroke="#AE3D3F"/>
    <path
      d="M22.7753 18.4803V13.1582H21.4881V12.4078H21.7473V11.9713H20.7996V11.6182H20.6391C20.6616 11.501 20.6712 11.3076 20.5299 11.1672C20.3109 10.9489 20.217 10.9642 20.2025 10.8213C20.1865 10.6825 20.2643 10.5429 20.2643 10.5429L20.2362 10.3406C20.2362 10.3406 20.5909 9.79414 20.5147 9.77809C20.4369 9.76284 20.1271 10.2628 20.1271 10.2628L19.9233 10.2154C19.9233 10.2154 19.7202 9.69945 19.6255 9.73075C19.5341 9.76204 19.8005 10.3085 19.8005 10.3085C19.8005 10.3085 19.7066 10.4963 19.7515 10.6207C19.8005 10.7467 19.9233 10.8093 19.8759 10.8558C19.8278 10.9024 19.7989 11.0428 19.7363 10.9971C19.6737 10.9481 19.5798 10.9345 19.5621 10.9971C19.5477 11.0589 19.4233 11.1054 19.4402 11.2916C19.4474 11.4007 19.4891 11.5291 19.5212 11.6182H19.388V11.9721H19.0365L15.374 10.4121V9.70426L15.0754 9.20833V8.93789L15.0321 8.89536H15.0281L14.9848 8.93789V9.20833L14.6878 9.70426V10.4121L11.0084 11.9713H10.4483V11.6182H10.3127C10.3456 11.5283 10.3865 11.3999 10.3953 11.2916C10.4106 11.1054 10.2862 11.0581 10.2709 10.9971C10.2541 10.9345 10.1602 10.9481 10.0992 10.9971C10.0374 11.042 10.0037 10.9016 9.95957 10.855C9.91303 10.8085 10.0374 10.7467 10.0848 10.6199C10.1297 10.4963 10.0374 10.3093 10.0374 10.3093C10.0374 10.3093 10.3006 9.76284 10.2075 9.73155C10.1153 9.69945 9.91303 10.2163 9.91303 10.2163L9.7092 10.262C9.7092 10.262 9.39783 9.76284 9.31919 9.77729C9.24215 9.79414 9.60086 10.3406 9.60086 10.3406L9.56796 10.5429C9.56796 10.5429 9.64821 10.6825 9.63055 10.8213C9.61451 10.9634 9.52061 10.9481 9.30474 11.1664C9.1619 11.3068 9.17153 11.4994 9.1948 11.6182H9.03431V11.9721H8.29522V12.4086H8.51269V13.1582H7.2247V18.4803H7V19.1038H23V18.4803H22.7753ZM10.2605 16.2678H9.41148V14.8073H10.2613L10.2605 16.2678ZM18.8688 16.2678H18.0214V14.8073H18.8688V16.2678ZM18.4483 16.8255C18.8174 16.8255 18.8688 17.2196 18.8688 17.2196V18.4795H18.0214V17.2196C18.0222 17.2196 18.0767 16.8255 18.4483 16.8255ZM17.1475 16.2678H16.3016V14.8073H17.1475V16.2678ZM16.7253 16.8255C17.0945 16.8255 17.1459 17.2196 17.1459 17.2196V18.4795H16.3008V17.2196C16.3016 17.2196 16.3538 16.8255 16.7253 16.8255ZM15.4245 16.2678H14.5771V14.8073H15.4253V16.2678H15.4245ZM15.0016 16.8255C15.3724 16.8255 15.4245 17.2196 15.4245 17.2196V18.4795H14.5771V17.2196C14.5771 17.2196 14.6325 16.8255 15.0016 16.8255ZM13.7032 16.2678H12.8566V14.8073H13.7032V16.2678ZM13.2803 16.8255C13.651 16.8255 13.7016 17.2196 13.7016 17.2196V18.4795H12.8566V17.2196C12.8566 17.2196 12.9111 16.8255 13.2803 16.8255ZM11.9818 16.2678H11.1336V14.8073H11.9826L11.9818 16.2678ZM11.5581 16.8255C11.9289 16.8255 11.9818 17.2196 11.9818 17.2196V18.4795H11.1336V17.2196C11.1336 17.2196 11.189 16.8255 11.5581 16.8255ZM19.7435 18.4803V17.2204C19.7435 17.2204 19.7989 16.8263 20.1688 16.8263C20.5396 16.8263 20.5909 17.2204 20.5909 17.2204V18.4803H19.7435ZM19.7435 16.2678V14.8073H20.5925V16.2678H19.7435ZM21.509 14.8009H22.2962V16.3184H21.509V14.8009ZM18.8624 13.5522C19.0477 13.0924 19.5565 12.7625 20.156 12.7625C20.7554 12.7625 21.2642 13.0932 21.4472 13.5522H18.8624ZM8.7109 12.1791H21.2907V12.4993H8.7109V12.1791ZM9.84562 12.7625C10.4435 12.7625 10.9523 13.0932 11.136 13.5522H8.55121C8.73578 13.0924 9.24456 12.7625 9.84562 12.7625ZM7.70218 14.8009H8.49263V16.3184H7.70218V14.8009ZM9.41148 17.2196C9.41148 17.2196 9.46604 16.8255 9.83599 16.8255C10.2059 16.8255 10.2597 17.2196 10.2597 17.2196V18.4795H9.41148V17.2196Z"
      fill="white"/>
  </g>
</svg>
