<svg width="30" height="40" viewBox="0 0 30 40" xmlns="http://www.w3.org/2000/svg">
  <g fill="none">
    <circle cx="15" cy="15" r="15" fill="#084677"/>
    <circle cx="15" cy="15" r="12.5" stroke="white"/>
    <circle cx="15" cy="38" r="2" fill="#084677"/>
    <path d="M17 30L15 34L13 30H17Z" fill="#084677" stroke="#084677"/>
    <path
      d="M11.407 10.6366V9.67427C11.407 9.30229 11.7089 9 12.0805 9H17.9195C18.2915 9 18.5934 9.30229 18.5934 9.67427V10.6366C18.5934 11.0086 18.2915 11.3101 17.9195 11.3101H12.0805C11.7089 11.3101 11.407 11.0086 11.407 10.6366ZM19.1441 16.5296L17.8061 12.4111C17.7157 12.1339 17.4572 11.9463 17.1654 11.9463H12.8354C12.5436 11.9463 12.2851 12.1347 12.1947 12.4111L10.8559 16.5296C10.7959 16.7164 10.8194 16.9206 10.9216 17.0884L14.425 22.8294C14.4667 22.8967 14.5218 22.953 14.5822 23.0004V17.2213C14.0332 17.0438 13.6324 16.5345 13.6324 15.9258C13.6324 15.1713 14.2447 14.5583 15 14.5583C15.7553 14.5583 16.3676 15.1713 16.3676 15.9258C16.3676 16.5345 15.968 17.045 15.4174 17.2213V23.0004C15.4773 22.953 15.5328 22.8967 15.575 22.8294L19.0784 17.0884C19.1801 16.9202 19.2044 16.7164 19.1441 16.5296Z"
      fill="white"/>
  </g>
</svg>
