<svg width="30" height="40" viewBox="0 0 30 40" xmlns="http://www.w3.org/2000/svg">
  <g fill="none">
    <circle cx="15" cy="15" r="15" fill="#AF155F"/>
    <circle cx="15" cy="15" r="12.5" stroke="white"/>
    <circle cx="15" cy="38" r="2" fill="#AF155F"/>
    <path d="M17 30L15 34L13 30H17Z" fill="#AF155F" stroke="#AF155F"/>
    <path
      d="M17.817 9C13.6079 9 13.6362 9.8322 13.6362 9.8322V12.145C14.418 12.0751 14.9551 11.9558 15.3021 11.8497C15.8187 11.6918 16.0253 11.5327 16.0617 11.5021C16.1393 11.4072 16.2484 11.3589 16.364 11.3589C16.4122 11.3589 16.4613 11.3671 16.5099 11.3839C16.6776 11.442 16.7798 11.6118 16.7798 11.7891V15.1328C17.1062 14.9708 17.4573 14.8884 17.8358 14.8872C17.9363 14.892 18.0445 14.8986 18.195 14.9182C18.3295 14.9442 18.4507 14.9685 18.576 15.0124C18.8224 15.0984 19.0621 15.2204 19.2765 15.3944C19.6621 15.6993 19.997 16.1712 20.0644 16.728C20.0755 16.8196 20.0047 16.8729 19.9154 16.8494C19.487 16.7366 19.1594 16.7144 18.8378 16.6899L18.3199 16.6671L17.7982 16.6591C17.5 16.6623 17.1424 16.6641 16.7955 16.6867C16.7903 16.687 16.7848 16.6876 16.7798 16.6879C16.7783 17.6109 16.5712 18.4791 16.2088 19.2352C16.7041 19.4769 17.2474 19.6109 17.8178 19.6109C20.1276 19.6109 22.0001 17.4214 22.0001 14.7217V9.83218C22.0001 9.83218 22.0259 9 17.817 9ZM20.5869 13.5394C20.0843 13.9264 19.3604 13.8897 18.8998 13.4291C18.4392 12.9686 18.4025 12.2447 18.7895 11.7421C18.8458 11.6689 18.9527 11.6695 19.018 11.7348L20.5941 13.3109C20.6594 13.3762 20.66 13.4831 20.5869 13.5394Z"
      fill="white"/>
    <path
      d="M16.3637 11.7892C16.3637 11.7892 15.6019 12.6215 12.1821 12.6215C8.76258 12.6215 8 11.7892 8 11.7892V16.6783C8 19.3782 9.87263 21.5659 12.1817 21.5659C14.4913 21.5659 16.3637 19.3782 16.3637 16.6783V11.7892ZM9.32455 16.1892C9.23221 16.1892 9.15621 16.1141 9.16811 16.0225C9.24981 15.3935 9.78768 14.9076 10.439 14.9076C11.0904 14.9076 11.6282 15.3935 11.7099 16.0225C11.7218 16.1141 11.6458 16.1892 11.5535 16.1892H9.32455ZM14.4277 17.8428C14.3595 18.398 14.024 18.8685 13.6393 19.1746C13.1998 19.5146 12.709 19.6804 12.1619 19.6819C12.0611 19.6772 11.9539 19.6723 11.8026 19.6511C11.6678 19.625 11.5466 19.6025 11.4213 19.5567C11.1751 19.4706 10.9355 19.3487 10.7216 19.1764C10.3364 18.8717 10.0009 18.3984 9.93322 17.8415C9.92208 17.7498 9.99285 17.6966 10.0821 17.7202C10.5107 17.8332 10.839 17.8563 11.1607 17.8793L11.6785 17.9021L12.1995 17.9104C12.4975 17.9089 12.8553 17.9072 13.203 17.8827C13.5247 17.8595 13.8526 17.8362 14.2791 17.7222C14.3683 17.6983 14.439 17.7512 14.4277 17.8428ZM15.0391 16.1892H12.8102C12.7178 16.1892 12.6418 16.1141 12.6537 16.0225C12.7355 15.3935 13.2733 14.9076 13.9247 14.9076C14.576 14.9076 15.1139 15.3935 15.1956 16.0225C15.2075 16.1141 15.1315 16.1892 15.0391 16.1892Z"
      fill="white"/>
  </g>
</svg>
