<svg width="30" height="29" viewBox="0 0 30 29" fill="none" xmlns="http://www.w3.org/2000/svg">
<path d="M15 9.25C15.4641 9.25 15.9092 9.06563 16.2374 8.73744C16.5656 8.40925 16.75 7.96413 16.75 7.5C16.75 7.03587 16.5656 6.59075 16.2374 6.26256C15.9092 5.93437 15.4641 5.75 15 5.75C14.5359 5.75 14.0908 5.93437 13.7626 6.26256C13.4344 6.59075 13.25 7.03587 13.25 7.5C13.25 7.96413 13.4344 8.40925 13.7626 8.73744C14.0908 9.06563 14.5359 9.25 15 9.25Z" stroke="#828282" stroke-width="0.5"/>
<path d="M27.5 28.5H2.5V27C2.5 25.3431 3.84315 24 5.5 24H24.5C26.1569 24 27.5 25.3431 27.5 27V28.5Z" stroke="#828282" stroke-width="0.5" stroke-linejoin="round"/>
<path d="M15.6247 0.499756L15.4685 0.694974L15.6247 0.499756ZM27.7739 10.2191L27.9301 10.0239L27.7739 10.2191ZM2.22609 10.2191L2.06991 10.0239L2.22609 10.2191ZM2.85078 12.25H27.1492V11.75H2.85078V12.25ZM27.9301 10.0239L15.7809 0.304539L15.4685 0.694974L27.6177 10.4143L27.9301 10.0239ZM14.2191 0.304539L2.06991 10.0239L2.38226 10.4143L14.5315 0.694973L14.2191 0.304539ZM15.7809 0.304539C15.3243 -0.0606794 14.6757 -0.0606799 14.2191 0.304539L14.5315 0.694973C14.8054 0.475842 15.1946 0.475842 15.4685 0.694974L15.7809 0.304539ZM27.1492 12.25C28.3308 12.25 28.8528 10.7621 27.9301 10.0239L27.6177 10.4143C28.1713 10.8572 27.8582 11.75 27.1492 11.75V12.25ZM2.85078 11.75C2.14182 11.75 1.82866 10.8572 2.38226 10.4143L2.06991 10.0239C1.14724 10.762 1.66918 12.25 2.85078 12.25V11.75Z" fill="#828282"/>
<path d="M5 12V24M25 24V12M15 12V24M10 24V12M20 12V24" stroke="#828282"/>
</svg>
