<svg width="26" height="22" viewBox="0 0 26 22" fill="none" xmlns="http://www.w3.org/2000/svg">
<path d="M1 5V21L8 17L16 21L23 17V1L16 5L8 1L1 5Z" stroke="#4F4F4F" stroke-linecap="round" stroke-linejoin="round"/>
<path d="M8 1V17" stroke="#4F4F4F" stroke-linecap="round" stroke-linejoin="round"/>
<path d="M16 5V21" stroke="#4F4F4F" stroke-linecap="round" stroke-linejoin="round"/>
<path d="M24.125 8.25C24.125 12.625 18.5 16.375 18.5 16.375C18.5 16.375 12.875 12.625 12.875 8.25C12.875 6.75816 13.4676 5.32742 14.5225 4.27252C15.5774 3.21763 17.0082 2.625 18.5 2.625C19.9918 2.625 21.4226 3.21763 22.4775 4.27252C23.5324 5.32742 24.125 6.75816 24.125 8.25Z" fill="white" stroke="#4F4F4F" stroke-linecap="round" stroke-linejoin="round"/>
<path d="M18.5 10.125C19.5355 10.125 20.375 9.28553 20.375 8.25C20.375 7.21447 19.5355 6.375 18.5 6.375C17.4645 6.375 16.625 7.21447 16.625 8.25C16.625 9.28553 17.4645 10.125 18.5 10.125Z" stroke="#4F4F4F" stroke-linecap="round" stroke-linejoin="round"/>
</svg>
