<svg width="29" height="29" viewBox="0 0 29 29" fill="none" xmlns="http://www.w3.org/2000/svg">
<path d="M0 2C0 0.89543 0.895431 0 2 0H29V29H2C0.89543 29 0 28.1046 0 27V2Z" fill="#F2F2F2"/>
<path d="M23 24V22C23 20.9391 22.5786 19.9217 21.8284 19.1716C21.0783 18.4214 20.0609 18 19 18H11C9.93913 18 8.92172 18.4214 8.17157 19.1716C7.42143 19.9217 7 20.9391 7 22V24" stroke="#4F4F4F" stroke-width="0.5" stroke-linecap="round" stroke-linejoin="round"/>
<path d="M15 14C17.2091 14 19 12.2091 19 10C19 7.79086 17.2091 6 15 6C12.7909 6 11 7.79086 11 10C11 12.2091 12.7909 14 15 14Z" stroke="#4F4F4F" stroke-width="0.5" stroke-linecap="round" stroke-linejoin="round"/>
</svg>
