<svg width="12" height="14" viewBox="0 0 12 14" stroke="transparent" fill="none" xmlns="http://www.w3.org/2000/svg">
<path d="M9.1989 5.1804L9.1993 5.1808C9.8253 5.7852 10.2455 6.5491 10.4153 7.3729C10.585 8.1963 10.4987 9.0504 10.1649 9.8295C9.8308 10.6092 9.2612 11.284 8.5201 11.7626C7.7785 12.2415 6.9014 12.5 6 12.5C5.0986 12.5 4.2215 12.2415 3.4799 11.7626C2.7388 11.284 2.1692 10.6092 1.8351 9.8295C1.5013 9.0504 1.415 8.1963 1.5847 7.3729C1.7545 6.5491 2.1747 5.7852 2.8007 5.1808L2.802 5.1795L5.9972 2.0867L9.1989 5.1804Z" stroke="#4F4F4F" stroke-width="3" stroke-linecap="round" stroke-linejoin="round"/>
</svg>
