<svg width="36" height="36" viewBox="0 0 36 36" fill="none" xmlns="http://www.w3.org/2000/svg">
<path d="M13 22.5V18M21.5 29.5H26C28.7614 29.5 31 27.2614 31 24.5V7.5C31 6.94772 30.5523 6.5 30 6.5H14C13.4477 6.5 13 6.94772 13 7.5V10" stroke="#828282" stroke-width="0.5"/>
<path d="M26 29.5H12.5C10.2909 29.5 8.5 27.7091 8.5 25.5V23.5C8.5 22.9477 8.94772 22.5 9.5 22.5H23C23.5523 22.5 24 22.9477 24 23.5V24.5C24 26.7091 25.7909 28.5 28 28.5H29" stroke="#828282" stroke-width="0.5"/>
<path d="M2 10.5L1.93638 10.2582L1.51545 10.369L1.82322 10.6768L2 10.5ZM6.5 15L6.32322 15.1768L6.42331 15.2769L6.56063 15.2425L6.5 15ZM10.5 14L10.7236 14.1118L10.9667 13.6256L10.4394 13.7575L10.5 14ZM9 17L8.77639 16.8882L8.65661 17.1278L8.90385 17.2308L9 17ZM18.78 15L18.6067 15.1802L18.6075 15.1809L18.78 15ZM9.57513 17.2396L9.47898 17.4704L9.57513 17.2396ZM15.9515 12.2803L15.7782 12.4605L15.9515 12.2803ZM5.46424 9.32985L1.93638 10.2582L2.06362 10.7418L5.59148 9.81338L5.46424 9.32985ZM1.82322 10.6768L6.32322 15.1768L6.67678 14.8232L2.17678 10.3232L1.82322 10.6768ZM6.56063 15.2425L10.5606 14.2425L10.4394 13.7575L6.43937 14.7575L6.56063 15.2425ZM10.2764 13.8882L8.77639 16.8882L9.22361 17.1118L10.7236 14.1118L10.2764 13.8882ZM23.6725 19.3191L18.9525 14.8191L18.6075 15.1809L23.3275 19.6809L23.6725 19.3191ZM18.9533 14.8198L16.1248 12.1001L15.7782 12.4605L18.6067 15.1802L18.9533 14.8198ZM8.90385 17.2308L9.47898 17.4704L9.67129 17.0089L9.09615 16.7692L8.90385 17.2308ZM9.47898 17.4704C12.8079 18.8574 16.6519 17.9222 18.9714 15.1608L18.5886 14.8392C16.4096 17.4333 12.7985 18.3119 9.67129 17.0089L9.47898 17.4704ZM5.59148 9.81338C9.21634 8.85948 13.0763 9.86252 15.7782 12.4605L16.1248 12.1001C13.2972 9.38127 9.25769 8.33157 5.46424 9.32985L5.59148 9.81338Z" fill="#828282"/>
</svg>
