<?xml version="1.0" encoding="utf-8"?>
<svg xmlns="http://www.w3.org/2000/svg">
<symbol id="actor-home" viewBox="0 0 30 40">
  <g fill="none">
    <circle cx="15" cy="15" r="15" fill="#515060"/>
    <circle cx="15" cy="15" r="12.5" stroke="white"/>
    <circle cx="15" cy="38" r="2" fill="#515060"/>
    <path d="M17 30L15 34L13 30H17Z" fill="#515060" stroke="#515060"/>
    <path d="M19.8796 13.0425L21.3786 14.5414V13.0425H19.8796Z" fill="white"/>
    <path d="M17.5717 13.0425H15.6165L18.0972 15.5231H15.7896L13.3089 13.0425H11.2313L13.712 15.5231H11.4044L9.26194 13.3807C9.23649 13.4435 9.22217 13.512 9.22217 13.5839V20.3201C9.22217 20.6956 9.52656 21 9.90205 21H20.6984C21.0739 21 21.3783 20.6956 21.3783 20.3201V15.5231H20.0523L17.5717 13.0425Z" fill="white"/>
    <path d="M19.3335 9L17.2774 9.29791L15.178 12.1086L17.2342 11.8107L19.3335 9Z" fill="white"/>
    <path d="M14.9936 9.62878L13.0586 9.90911L10.9592 12.7198L12.8943 12.4395L14.9936 9.62878Z" fill="white"/>
    <path d="M21.2368 10.6838L21.0542 9.42322L19.5181 11.4798L20.7786 11.2972C21.0745 11.2543 21.2797 10.9797 21.2368 10.6838Z" fill="white"/>
    <path d="M10.7749 10.2399L9.4638 10.4299C9.16794 10.4727 8.96279 10.7474 9.00566 11.0433L9.17234 12.1938L9.19559 12.3544L9.73805 11.6281L10.7749 10.2399Z" fill="white"/>
  </g>

</symbol>
<symbol id="arrow-left" viewBox="0 0 8 14">
<path d="M7 13L1 7L7 1" stroke="#4F4F4F" stroke-linecap="round" stroke-linejoin="round" fill="none"/>

</symbol>
<symbol id="arrow-right" viewBox="0 0 30 15">
  <path d="M22.0001 0.999996L28.666 7.5L22.0001 14" stroke="black" fill="none"/>
  <line y1="7.5" x2="28.7147" y2="7.5" stroke="black"/>

</symbol>
<symbol id="cemetery" viewBox="0 0 30 40">
  <g fill="none">
    <circle cx="15" cy="15" r="15" fill="black"/>
    <circle cx="15" cy="15" r="12.5" stroke="white"/>
    <circle cx="15" cy="38" r="2" fill="black"/>
    <path d="M17 30L15 34L13 30H17Z" fill="black" stroke="black"/>
    <path d="M20.9062 20.7695H9.09375V22H20.9062V20.7695Z" fill="white"/>
    <path d="M20.0859 18.7188H9.91406V19.9492H20.0859V18.7188Z" fill="white"/>
    <path d="M17.7179 8.82031C16.9103 8.2832 15.9735 8 15 8C14.0265 8 13.0897 8.2832 12.2821 8.82031H10.7344V17.8984H19.2656V8.82031H17.7179ZM16.5176 12.5117H15.4102V15H14.5898V12.5117H13.4824V11.6914H14.5898V10.7344H15.4102V11.6914H16.5176V12.5117Z" fill="white"/>
  </g>

</symbol>
<symbol id="checkbox-checked" viewBox="0 0 16 16">
<rect width="16" height="16" rx="2" fill="#4F4F4F"/>
<path d="M13.3334 4L6.00002 11.3333L2.66669 8" stroke="white" stroke-linecap="round" stroke-linejoin="round" fill="none"/>

</symbol>
<symbol id="checkbox" viewBox="0 0 16 16">
<rect x="0.25" y="0.25" width="15.5" height="15.5" rx="1.75" fill="white" stroke="#BDBDBD" stroke-width="0.5"/>

</symbol>
<symbol id="church" viewBox="0 0 30 40">
  <g fill="none">
    <circle cx="15" cy="15" r="15" fill="#F6C23D"/>
    <circle cx="15" cy="15" r="12.5" stroke="white"/>
    <circle cx="15" cy="38" r="2" fill="#F6C23D"/>
    <path d="M17 30L15 34L13 30H17Z" fill="#F6C23D" stroke="#F6C23D"/>
    <path d="M19.443 16.3145V20.5103V20.5242H22V17.7925L19.443 16.3145Z" fill="white"/>
    <path d="M8 20.5242H10.557V20.5103V16.3113L8 17.7925V20.5242Z" fill="white"/>
    <path d="M11.0085 14.8833V20.5103H13.63V18.1246C13.63 17.3764 14.2366 16.7698 14.9849 16.7698H15.015C15.7633 16.7698 16.3699 17.3764 16.3699 18.1246V20.5103H18.9913V14.8833L14.9999 11.5724L11.0085 14.8833Z" fill="white"/>
    <path d="M9.24207 14.2975L9.9193 15.1193L15 10.9328L20.0808 15.1193L20.758 14.2975L15.3162 9.81341V8.81557H16.2931V8.18331H15.3162V7.47577H14.6839V8.18331H13.707V8.81557H14.6839V9.81341L9.24207 14.2975Z" fill="white"/>
  </g>

</symbol>
<symbol id="cross" viewBox="0 0 16 16">
<path d="M12 4L4 12" stroke="#BDBDBD" stroke-width="0.5" stroke-linecap="round" stroke-linejoin="round"/>
<path d="M4 4L12 12" stroke="#BDBDBD" stroke-width="0.5" stroke-linecap="round" stroke-linejoin="round"/>

</symbol>
<symbol id="hostel" viewBox="0 0 30 40">
  <g fill="none">
    <circle cx="15" cy="15" r="15" fill="#5F0077"/>
    <circle cx="15" cy="15" r="12.5" stroke="white"/>
    <circle cx="15" cy="38" r="2" fill="#5F0077"/>
    <path d="M17 30L15 34L13 30H17Z" fill="#5F0077" stroke="#5F0077"/>
    <g clip-path="url(#clip0)">
      <path d="M21.344 14.7208C21.2822 14.6657 21.1995 14.6402 21.1174 14.6517L20.5178 14.7347C20.3642 14.7559 20.2215 14.649 20.2003 14.4951L20.1079 13.8382C20.0976 13.7643 20.0579 13.6977 19.9988 13.6528C19.9391 13.6077 19.864 13.5886 19.7901 13.5986L19.1375 13.691C18.9832 13.7128 18.8408 13.6056 18.819 13.4517L18.7369 12.8712C18.7263 12.7969 18.6866 12.73 18.627 12.6851C18.567 12.6406 18.4915 12.6212 18.4179 12.6318L18.1252 12.6745C18.0307 12.6885 17.9368 12.6436 17.8883 12.5609C17.8395 12.4788 17.8453 12.3752 17.9032 12.2985L17.9035 12.2982C17.9483 12.2386 17.968 12.1637 17.9577 12.0898C17.9474 12.0159 17.9077 11.9492 17.8483 11.9044L17.3363 11.5193C17.4784 10.4222 17.0324 9.32912 16.1044 8.63199C14.7171 7.58886 12.7502 7.86456 11.7071 9.25217C11.6513 9.3264 11.5995 9.40244 11.5514 9.48C10.5543 9.48394 9.39905 9.85296 8.81099 11.1418C8.08083 12.743 9.11608 14.4254 9.88563 15.3679L9.53115 15.5773C9.23939 15.75 9.14274 16.1263 9.31543 16.4174L12.4385 21.6988C12.6109 21.99 12.9871 22.0869 13.2786 21.9146L15.1267 20.8214C15.2667 20.739 15.3682 20.6036 15.4088 20.4467C15.4494 20.2888 15.4258 20.1219 15.3424 19.9816L12.2197 14.7005C12.1367 14.5602 12.0019 14.459 11.844 14.4181C11.6865 14.3778 11.5192 14.4015 11.379 14.4845L10.6885 14.8929C10.0462 14.1385 9.09639 12.7336 9.6484 11.5238C9.98712 10.7816 10.5903 10.5053 11.1566 10.4271C10.8788 11.6081 11.2923 12.8975 12.3194 13.6698C13.241 14.3627 14.3866 14.5163 15.4012 14.0758L19.3265 17.0243C19.4483 17.1161 19.6074 17.1425 19.7522 17.0949L21.0777 16.6653C21.2667 16.6044 21.3961 16.4314 21.4019 16.2323L21.4376 14.938C21.44 14.8556 21.4058 14.7762 21.344 14.7208ZM11.4629 15.7315C11.6065 15.9748 11.5262 16.2881 11.2829 16.4323C11.0399 16.5762 10.7267 16.4959 10.5825 16.2523C10.5458 16.1902 10.524 16.1239 10.5152 16.0566C10.5506 16.0908 10.574 16.1123 10.5828 16.1202C10.6712 16.2008 10.7821 16.2402 10.8927 16.2402C11.0175 16.2402 11.142 16.1896 11.2329 16.0902C11.3687 15.9415 11.3881 15.7282 11.2969 15.5606C11.3629 15.6021 11.4205 15.6597 11.4629 15.7315ZM13.6885 10.7446C13.4231 11.0982 12.9223 11.1691 12.5687 10.9034C12.423 10.7943 12.3255 10.6446 12.2794 10.4819C12.4124 10.5107 12.4981 10.5371 12.5148 10.5422C12.7554 10.621 13.015 10.4883 13.0938 10.2468C13.1726 10.0054 13.0405 9.74571 12.799 9.66694C12.7348 9.64603 12.6657 9.62604 12.5927 9.60725C12.8684 9.41577 13.2462 9.41184 13.5295 9.62482C13.8827 9.89053 13.9539 10.3916 13.6885 10.7446Z" fill="white"/>
    </g>
    <defs>
      <clipPath id="clip0">
        <rect width="14" height="14" fill="white" transform="translate(8 8)"/>
      </clipPath>
    </defs>
  </g>

</symbol>
<symbol id="itmo-logo" viewBox="0 0 278 50.043">

	<circle fill="#EC0B43" cx="9.014" cy="12.981" r="2.765"/>
	<circle fill="#1946BA" cx="9.013" cy="20.918" r="1.844"/>
	<circle fill="#1946BA" cx="16.949" cy="9.014" r="2.765"/>
	<circle fill="#1946BA" cx="24.885" cy="12.981" r="2.765"/>
	<circle fill="#1946BA" cx="32.821" cy="16.949" r="2.765"/>
	<circle fill="#1946BA" cx="24.885" cy="20.918" r="2.765"/>
	<circle fill="#1946BA" cx="40.757" cy="20.918" r="2.765"/>
	<circle fill="#1946BA" cx="40.757" cy="28.854" r="1.844"/>
	<circle fill="#1946BA" cx="48.693" cy="24.885" r="1.844"/>
	<circle fill="#1946BA" cx="48.693" cy="16.949" r="2.765"/>
	<circle fill="#1946BA" cx="40.757" cy="12.981" r="2.765"/>
	<circle fill="#1946BA" cx="32.821" cy="24.885" r="1.844"/>
	<circle fill="#1946BA" cx="48.693" cy="9.014" r="2.765"/>
	<circle fill="#1946BA" cx="56.629" cy="5.046" r="1.844"/>
	<circle fill="#1946BA" cx="56.629" cy="20.918" r="1.844"/>
	<circle fill="#1946BA" cx="32.821" cy="9.014" r="1.844"/>
	<circle fill="#1946BA" cx="24.885" cy="28.854" r="1.843"/>
	<circle fill="#1946BA" cx="16.949" cy="16.949" r="2.765"/>
	<circle fill="#1946BA" cx="1.078" cy="24.885" r="1.078"/>
	<circle fill="#1946BA" cx="1.078" cy="16.949" r="1.078"/>
	<circle fill="#1946BA" cx="16.949" cy="24.83" r="1.078"/>
	<circle fill="#1946BA" cx="16.949" cy="1.077" r="1.078"/>
	<circle fill="#1946BA" cx="32.765" cy="32.822" r="1.078"/>
	<circle fill="#1946BA" cx="9.013" cy="5.046" r="1.078"/>
	<circle fill="#1946BA" cx="24.885" cy="5.046" r="1.077"/>
	<circle fill="#1946BA" cx="32.765" cy="32.822" r="1.078"/>
	<circle fill="#1946BA" cx="72.501" cy="12.981" r="1.078"/>
	<circle fill="#1946BA" cx="56.629" cy="28.854" r="1.078"/>
	<circle fill="#1946BA" cx="64.565" cy="9.014" r="2.765"/>
	<circle fill="#1946BA" cx="56.629" cy="12.981" r="2.765"/>
	<circle fill="#1946BA" cx="64.565" cy="24.885" r="1.077"/>
	<circle fill="#1946BA" cx="64.565" cy="16.949" r="1.844"/>
	<circle fill="#1946BA" cx="40.757" cy="5.046" r="1.077"/>
	<circle fill="#1946BA" cx="64.565" cy="1.077" r="1.077"/>
	<circle fill="#1946BA" cx="72.501" cy="5.046" r="1.078"/>
	<path fill="#1946BA" d="M86.738,9.129c-0.458,0-0.817,0.143-1.066,0.423c-0.246,0.277-0.37,0.634-0.37,1.058v12.703
		c0,0.424,0.125,0.776,0.372,1.047c0.248,0.272,0.606,0.41,1.064,0.41c0.442,0,0.796-0.137,1.052-0.409
		c0.254-0.271,0.384-0.623,0.384-1.048V10.609c0-0.425-0.129-0.78-0.383-1.059C87.535,9.271,87.181,9.129,86.738,9.129z"/>
	<path fill="#1946BA" d="M102.666,9.129H92.047c-0.41,0-0.743,0.113-0.992,0.338c-0.25,0.226-0.377,0.542-0.377,0.941
		c0,0.383,0.126,0.698,0.375,0.939c0.248,0.24,0.582,0.361,0.993,0.361h3.874v11.604c0,0.424,0.125,0.776,0.372,1.047
		c0.248,0.272,0.606,0.41,1.064,0.41c0.458,0,0.816-0.138,1.064-0.41c0.246-0.271,0.371-0.623,0.371-1.047V11.709h3.874
		c0.426,0,0.768-0.121,1.016-0.361c0.25-0.241,0.375-0.557,0.375-0.939c0-0.399-0.127-0.716-0.377-0.941
		C103.432,9.242,103.091,9.129,102.666,9.129z"/>
	<path fill="#1946BA" d="M119.669,9.129c-0.554,0-1.024,0.301-1.399,0.896l-4.403,7.111l-4.491-7.089
		c-0.375-0.609-0.869-0.918-1.467-0.918c-0.396,0-0.724,0.126-0.972,0.374c-0.248,0.248-0.374,0.629-0.374,1.129v12.681
		c0,0.967,0.453,1.457,1.346,1.457s1.346-0.49,1.346-1.457v-8.693l3.146,4.933c0.345,0.549,0.793,0.827,1.332,0.827
		c0.524,0,0.965-0.286,1.31-0.85l3.101-5.014v8.797c0,0.424,0.129,0.777,0.384,1.048c0.256,0.272,0.609,0.409,1.052,0.409
		c0.458,0,0.816-0.138,1.064-0.41c0.247-0.271,0.371-0.623,0.371-1.047V10.609c0-0.438-0.117-0.797-0.347-1.067
		C120.435,9.268,120.099,9.129,119.669,9.129z"/>
	<path fill="#1946BA" d="M131.856,8.905c-2.362,0-4.213,0.765-5.502,2.271c-1.286,1.504-1.938,3.446-1.938,5.772
		c0,2.343,0.651,4.288,1.938,5.784c1.29,1.5,3.141,2.261,5.502,2.261s4.216-0.761,5.513-2.261c1.293-1.496,1.949-3.441,1.949-5.784
		c0-2.326-0.656-4.269-1.949-5.772C136.073,9.67,134.219,8.905,131.856,8.905z M135.155,20.894c-0.763,1.009-1.872,1.52-3.299,1.52
		c-1.412,0-2.514-0.511-3.276-1.52c-0.768-1.018-1.157-2.344-1.157-3.944c0-1.599,0.389-2.927,1.157-3.944
		c0.763-1.009,1.865-1.52,3.276-1.52c1.427,0,2.536,0.511,3.299,1.52c0.768,1.018,1.157,2.345,1.157,3.944
		C136.313,18.55,135.923,19.877,135.155,20.894z"/>
	<path fill="#1946BA" d="M159.636,9.129c-0.445,0-0.79,0.144-1.023,0.426c-0.229,0.276-0.346,0.632-0.346,1.055v7.886
		c0,2.637-1.048,3.918-3.202,3.918s-3.201-1.267-3.201-3.873v-7.931c0-0.425-0.129-0.78-0.383-1.059
		c-0.256-0.279-0.618-0.422-1.075-0.422c-0.443,0-0.795,0.143-1.043,0.423c-0.246,0.277-0.371,0.634-0.371,1.058v7.818
		c0,1.953,0.479,3.552,1.421,4.75c0.947,1.206,2.506,1.816,4.631,1.816c1.097,0,2.059-0.176,2.858-0.523
		c0.804-0.349,1.436-0.846,1.875-1.477c0.438-0.625,0.759-1.324,0.955-2.079c0.195-0.75,0.295-1.602,0.295-2.531v-7.774
		c0-0.424-0.121-0.779-0.358-1.056C160.426,9.271,160.079,9.129,159.636,9.129z"/>
	<path fill="#1946BA" d="M176.414,9.129c-0.862,0-1.301,0.498-1.301,1.48v9.02l-7.228-9.723c-0.374-0.516-0.844-0.777-1.396-0.777
		c-0.893,0-1.346,0.505-1.346,1.503v12.681c0,0.967,0.438,1.457,1.302,1.457c0.878,0,1.324-0.49,1.324-1.457v-8.957l7.319,9.708
		c0.375,0.469,0.807,0.706,1.281,0.706c0.412,0,0.748-0.138,0.996-0.41c0.247-0.271,0.372-0.623,0.372-1.047V10.609
		C177.738,9.627,177.293,9.129,176.414,9.129z"/>
	<path fill="#1946BA" d="M183.292,9.129c-0.459,0-0.817,0.143-1.065,0.423c-0.246,0.277-0.371,0.634-0.371,1.058v12.703
		c0,0.424,0.125,0.776,0.372,1.047c0.248,0.272,0.606,0.41,1.064,0.41c0.442,0,0.797-0.137,1.052-0.409
		c0.255-0.271,0.384-0.623,0.384-1.048V10.609c0-0.425-0.128-0.78-0.383-1.059C184.089,9.271,183.734,9.129,183.292,9.129z"/>
	<path fill="#1946BA" d="M200.105,9.248c-0.901-0.364-1.576,0.046-1.98,1.195l-3.748,10.17l-4.078-10.284
		c-0.42-1.06-1.104-1.417-1.976-1.061c-0.434,0.161-0.702,0.475-0.797,0.93c-0.095,0.444-0.047,0.854,0.139,1.208l5.176,12.547
		c0.298,0.69,0.763,1.041,1.383,1.041c0.682,0,1.17-0.367,1.452-1.089l4.95-12.679c0.233-0.572,0.275-1.039,0.128-1.389
		C200.643,9.575,200.424,9.376,200.105,9.248z"/>
	<path fill="#1946BA" d="M212.571,22.189h-6.383v-4.163h4.904c0.427,0,0.768-0.121,1.016-0.361c0.25-0.241,0.375-0.557,0.375-0.939
		c0-0.398-0.126-0.716-0.377-0.942c-0.248-0.224-0.589-0.337-1.014-0.337h-4.904v-3.737h6.159c0.41,0,0.745-0.118,0.992-0.349
		c0.249-0.233,0.376-0.546,0.376-0.93c0-0.398-0.127-0.719-0.376-0.952c-0.248-0.231-0.582-0.35-0.992-0.35h-7.572
		c-0.457,0-0.819,0.143-1.075,0.422c-0.254,0.278-0.384,0.634-0.384,1.059v12.68c0,0.426,0.134,0.782,0.396,1.06
		c0.263,0.279,0.629,0.421,1.086,0.421h7.773c0.411,0,0.744-0.117,0.992-0.35c0.25-0.232,0.376-0.546,0.376-0.929
		c0-0.397-0.126-0.719-0.376-0.952C213.315,22.308,212.982,22.189,212.571,22.189z"/>
	<path fill="#1946BA" d="M224.607,18.049c0.83-0.31,1.5-0.827,1.995-1.54c0.517-0.744,0.778-1.666,0.778-2.74
		c0-3.152-1.983-4.752-5.894-4.752c-1.36,0-2.497,0.1-3.38,0.294c-0.88,0.188-1.326,0.738-1.326,1.636v12.366
		c0,0.424,0.124,0.776,0.371,1.047c0.248,0.272,0.606,0.41,1.063,0.41c0.443,0,0.798-0.137,1.053-0.409
		c0.254-0.271,0.384-0.623,0.384-1.048v-4.757c0.377,0.05,0.791,0.076,1.23,0.076c0.406,0,0.714-0.013,0.915-0.038l3.151,5.19
		c0.399,0.664,0.866,1.001,1.385,1.001c0.248,0,0.509-0.077,0.779-0.229c0.367-0.225,0.578-0.561,0.626-0.999
		c0.047-0.431-0.071-0.862-0.351-1.281L224.607,18.049z M219.652,11.722c0.699-0.083,1.241-0.125,1.611-0.125
		c2.094,0,3.112,0.762,3.112,2.329c0,0.876-0.267,1.519-0.793,1.909c-0.533,0.396-1.374,0.597-2.499,0.597
		c-0.515,0-0.996-0.025-1.432-0.078V11.722z"/>
	<path fill="#1946BA" d="M239.687,16.51c-0.576-0.299-1.213-0.588-1.891-0.854c-0.675-0.268-1.31-0.494-1.889-0.675
		c-0.56-0.175-1.034-0.429-1.411-0.755c-0.371-0.321-0.551-0.697-0.551-1.151c0-1.024,0.695-1.521,2.126-1.521
		c0.864,0,1.78,0.2,2.719,0.598c1.143,0.499,1.896,0.395,2.247-0.289c0.413-0.812,0.137-1.485-0.82-2.003
		c-1.099-0.632-2.426-0.953-3.943-0.953c-1.688,0-2.993,0.384-3.879,1.142c-0.891,0.762-1.344,1.81-1.344,3.116
		c0,1.062,0.278,1.948,0.827,2.634c0.545,0.681,1.218,1.185,1.997,1.495c0.773,0.308,1.548,0.583,2.304,0.819
		c0.748,0.234,1.395,0.548,1.923,0.929c0.517,0.373,0.769,0.847,0.769,1.449c0,0.615-0.226,1.067-0.688,1.38
		c-0.468,0.317-1.117,0.478-1.931,0.478c-1.028,0-2.146-0.276-3.325-0.822c-1.035-0.424-1.725-0.312-2.043,0.31
		c-0.223,0.414-0.242,0.825-0.059,1.225c0.18,0.391,0.536,0.729,1.061,1.007c1.203,0.616,2.649,0.929,4.299,0.929
		c1.852,0,3.26-0.442,4.185-1.313c0.926-0.873,1.396-2.06,1.396-3.527c0-0.865-0.201-1.62-0.597-2.245
		C240.771,17.285,240.273,16.814,239.687,16.51z"/>
	<path fill="#1946BA" d="M246.063,9.129c-0.458,0-0.817,0.143-1.066,0.423c-0.245,0.277-0.369,0.634-0.369,1.058v12.703
		c0,0.424,0.124,0.776,0.37,1.047c0.249,0.272,0.607,0.41,1.065,0.41c0.441,0,0.796-0.137,1.052-0.409
		c0.255-0.271,0.383-0.623,0.383-1.048V10.609c0-0.425-0.128-0.78-0.382-1.059C246.86,9.271,246.506,9.129,246.063,9.129z"/>
	<path fill="#1946BA" d="M261.99,9.129h-10.618c-0.409,0-0.743,0.113-0.991,0.338c-0.25,0.226-0.377,0.542-0.377,0.941
		c0,0.383,0.126,0.698,0.375,0.939c0.248,0.24,0.583,0.361,0.993,0.361h3.874v11.604c0,0.424,0.125,0.776,0.371,1.047
		c0.248,0.272,0.606,0.41,1.064,0.41s0.816-0.138,1.064-0.41c0.246-0.271,0.372-0.623,0.372-1.047V11.709h3.872
		c0.427,0,0.769-0.121,1.018-0.361c0.248-0.241,0.375-0.557,0.375-0.939c0-0.399-0.128-0.716-0.378-0.941
		C262.757,9.242,262.415,9.129,261.99,9.129z"/>
	<path fill="#1946BA" d="M277.468,9.362c-0.473-0.235-0.886-0.274-1.224-0.112c-0.327,0.156-0.626,0.438-0.889,0.839l-3.419,5.305
		l-3.528-5.304c-0.277-0.432-0.601-0.73-0.959-0.887c-0.369-0.159-0.793-0.108-1.277,0.167c-0.761,0.538-0.814,1.327-0.156,2.345
		l4.396,6.295v5.279c0,0.425,0.125,0.777,0.371,1.048c0.249,0.272,0.607,0.41,1.064,0.41c0.443,0,0.796-0.137,1.053-0.409
		c0.254-0.271,0.384-0.623,0.384-1.049v-5.393l4.33-6.475c0.247-0.371,0.378-0.733,0.386-1.079
		C278.008,9.986,277.834,9.66,277.468,9.362z"/>
	<g>
		<path fill="#1946BA" d="M86.657,41.263c-0.267,0.231-0.4,0.528-0.4,0.891c0,0.369,0.139,0.668,0.416,0.896
			s0.613,0.405,1.007,0.533s0.789,0.265,1.184,0.41c0.395,0.146,0.73,0.372,1.007,0.678c0.277,0.306,0.416,0.699,0.416,1.183
			c0,0.626-0.221,1.125-0.661,1.498c-0.441,0.373-1.063,0.56-1.866,0.56c-0.732,0-1.368-0.142-1.908-0.426
			c-0.427-0.234-0.576-0.455-0.448-0.661c0.015-0.028,0.032-0.052,0.054-0.069c0.021-0.018,0.044-0.028,0.069-0.032
			c0.025-0.003,0.048-0.007,0.069-0.011c0.021-0.004,0.048-0.002,0.081,0.006c0.032,0.007,0.059,0.016,0.08,0.026l0.085,0.042
			c0.035,0.019,0.066,0.032,0.09,0.044c0.025,0.01,0.057,0.025,0.096,0.048c0.039,0.021,0.069,0.039,0.091,0.053
			c0.497,0.27,1.056,0.405,1.674,0.405c0.568,0,1.017-0.119,1.343-0.357s0.491-0.581,0.491-1.029c0-0.326-0.1-0.603-0.299-0.825
			c-0.199-0.225-0.448-0.392-0.746-0.502l-0.97-0.367c-0.349-0.136-0.672-0.272-0.971-0.411c-0.298-0.139-0.547-0.35-0.746-0.634
			c-0.199-0.284-0.299-0.63-0.299-1.034c0-0.533,0.194-0.973,0.582-1.317s0.951-0.518,1.689-0.518c0.689,0,1.287,0.157,1.792,0.47
			c0.334,0.206,0.441,0.397,0.32,0.576c-0.086,0.127-0.295,0.104-0.629-0.075c-0.021-0.007-0.036-0.014-0.043-0.021
			c-0.476-0.248-0.963-0.372-1.46-0.372C87.32,40.917,86.924,41.032,86.657,41.263z"/>
		<path fill="#1946BA" d="M91.539,43.262c-0.071-0.17-0.011-0.306,0.181-0.404c0.498-0.257,1.063-0.384,1.696-0.384
			c1.315,0,1.973,0.628,1.973,1.886v3.104c0,0.228-0.1,0.341-0.299,0.341c-0.199,0-0.299-0.113-0.299-0.341v-0.8
			c-0.149,0.348-0.394,0.644-0.735,0.886c-0.341,0.241-0.775,0.361-1.301,0.361c-0.526,0-0.945-0.133-1.258-0.399
			c-0.313-0.267-0.469-0.652-0.469-1.157c0-0.327,0.069-0.609,0.208-0.847c0.139-0.239,0.325-0.421,0.56-0.55
			c0.235-0.128,0.484-0.221,0.747-0.277c0.263-0.057,0.547-0.085,0.853-0.085c0.419,0,0.885,0.036,1.396,0.106v-0.298
			c0-0.918-0.476-1.376-1.428-1.376c-0.384,0-0.832,0.1-1.344,0.299C91.762,43.433,91.602,43.411,91.539,43.262z M94.268,46.748
			c0.348-0.404,0.522-0.842,0.522-1.311v-0.203c-0.483-0.07-0.92-0.106-1.311-0.106c-1.223,0-1.834,0.401-1.834,1.204
			c0,0.313,0.103,0.562,0.309,0.747c0.207,0.185,0.498,0.276,0.875,0.276C93.44,47.355,93.919,47.153,94.268,46.748z"/>
		<path fill="#1946BA" d="M97.038,40.879c0.082-0.082,0.19-0.123,0.325-0.123c0.142,0,0.254,0.041,0.336,0.123
			s0.123,0.194,0.123,0.336c0,0.135-0.041,0.243-0.123,0.325s-0.194,0.122-0.336,0.122s-0.252-0.039-0.331-0.117
			c-0.078-0.078-0.117-0.188-0.117-0.33S96.956,40.961,97.038,40.879z M97.064,42.92c0-0.227,0.099-0.341,0.298-0.341
			c0.199,0,0.299,0.114,0.299,0.341v4.543c0,0.228-0.1,0.341-0.299,0.341c-0.199,0-0.298-0.113-0.298-0.341V42.92z"/>
		<path fill="#1946BA" d="M103.1,44.755c0-0.555-0.102-0.981-0.304-1.279c-0.203-0.299-0.549-0.448-1.04-0.448
			c-0.647,0-1.113,0.27-1.397,0.811c-0.284,0.54-0.426,1.24-0.426,2.101v1.524c0,0.228-0.1,0.341-0.299,0.341
			s-0.298-0.113-0.298-0.341V42.92c0-0.227,0.099-0.341,0.298-0.341s0.299,0.114,0.299,0.341v0.864
			c0.17-0.44,0.428-0.77,0.772-0.986c0.345-0.217,0.713-0.324,1.104-0.324c0.683,0,1.167,0.191,1.455,0.575
			c0.288,0.384,0.432,0.945,0.432,1.685v2.729c0,0.228-0.1,0.341-0.299,0.341c-0.199,0-0.298-0.113-0.298-0.341V44.755z"/>
		<path fill="#1946BA" d="M105.972,43.134v2.89c0,0.483,0.064,0.826,0.192,1.028c0.128,0.203,0.366,0.304,0.714,0.304
			c0.143,0,0.324-0.042,0.544-0.127c0.256-0.107,0.416-0.104,0.48,0.01c0.092,0.164,0.035,0.311-0.171,0.438
			c-0.263,0.156-0.59,0.234-0.98,0.234c-0.505,0-0.86-0.134-1.066-0.405c-0.206-0.27-0.309-0.718-0.309-1.343v-4.521
			c0-0.228,0.099-0.341,0.298-0.341c0.199,0,0.299,0.113,0.299,0.341v0.938h1.365c0.085,0,0.154,0.027,0.208,0.081
			c0.053,0.053,0.08,0.119,0.08,0.197c0,0.185-0.096,0.276-0.288,0.276H105.972z"/>
		<path fill="#1946BA" d="M115.779,44.359c-0.537,0.392-1.224,0.587-2.063,0.587c-0.426,0-0.8-0.032-1.12-0.096v2.612
			c0,0.1-0.028,0.181-0.085,0.245c-0.057,0.063-0.135,0.096-0.235,0.096s-0.178-0.032-0.234-0.096
			c-0.057-0.064-0.085-0.146-0.085-0.245v-6.558c0-0.241,0.106-0.377,0.32-0.404c0.49-0.071,1.023-0.107,1.6-0.107
			c1.805,0,2.708,0.729,2.708,2.186C116.584,43.375,116.316,43.969,115.779,44.359z M112.596,41.044v3.23
			c0.37,0.064,0.757,0.097,1.163,0.097c0.632,0,1.151-0.139,1.557-0.416c0.405-0.277,0.607-0.736,0.607-1.376
			c0-1.073-0.682-1.609-2.047-1.609C113.449,40.97,113.023,40.995,112.596,41.044z"/>
		<path fill="#1946BA" d="M121.076,47.036c0.206-0.1,0.348-0.081,0.426,0.053c0.086,0.149,0.043,0.285-0.128,0.406
			c-0.419,0.276-0.959,0.415-1.62,0.415c-0.817,0-1.433-0.234-1.845-0.703c-0.412-0.47-0.619-1.13-0.619-1.983
			c0-0.803,0.217-1.462,0.65-1.978s1.027-0.772,1.781-0.772c0.661,0,1.166,0.196,1.514,0.591c0.348,0.396,0.522,0.872,0.522,1.435
			c0,0.171-0.011,0.323-0.032,0.458c-0.05,0.349-0.238,0.522-0.565,0.522h-3.263c0.042,0.604,0.224,1.068,0.544,1.392
			s0.757,0.484,1.312,0.484C120.194,47.355,120.635,47.25,121.076,47.036z M118.432,43.528c-0.313,0.334-0.491,0.808-0.533,1.418
			h3.273c0.014-0.093,0.021-0.228,0.021-0.405c-0.015-0.462-0.148-0.83-0.4-1.104c-0.252-0.273-0.624-0.41-1.114-0.41
			C119.16,43.027,118.745,43.194,118.432,43.528z"/>
		<path fill="#1946BA" d="M123.766,43.134v2.89c0,0.483,0.063,0.826,0.192,1.028c0.128,0.203,0.366,0.304,0.714,0.304
			c0.143,0,0.324-0.042,0.544-0.127c0.256-0.107,0.416-0.104,0.479,0.01c0.093,0.164,0.036,0.311-0.17,0.438
			c-0.263,0.156-0.59,0.234-0.98,0.234c-0.505,0-0.86-0.134-1.067-0.405c-0.206-0.27-0.309-0.718-0.309-1.343v-4.521
			c0-0.228,0.1-0.341,0.299-0.341c0.199,0,0.299,0.113,0.299,0.341v0.938h1.365c0.085,0,0.154,0.027,0.208,0.081
			c0.053,0.053,0.08,0.119,0.08,0.197c0,0.185-0.096,0.276-0.288,0.276H123.766z"/>
		<path fill="#1946BA" d="M130.101,47.036c0.206-0.1,0.348-0.081,0.426,0.053c0.085,0.149,0.042,0.285-0.128,0.406
			c-0.419,0.276-0.959,0.415-1.621,0.415c-0.817,0-1.433-0.234-1.845-0.703c-0.412-0.47-0.618-1.13-0.618-1.983
			c0-0.803,0.217-1.462,0.65-1.978c0.434-0.516,1.028-0.772,1.781-0.772c0.661,0,1.166,0.196,1.514,0.591
			c0.349,0.396,0.522,0.872,0.522,1.435c0,0.171-0.011,0.323-0.032,0.458c-0.05,0.349-0.238,0.522-0.565,0.522h-3.263
			c0.042,0.604,0.224,1.068,0.544,1.392s0.757,0.484,1.312,0.484C129.219,47.355,129.66,47.25,130.101,47.036z M127.457,43.528
			c-0.313,0.334-0.491,0.808-0.533,1.418h3.273c0.014-0.093,0.021-0.228,0.021-0.405c-0.015-0.462-0.148-0.83-0.4-1.104
			c-0.252-0.273-0.624-0.41-1.114-0.41C128.186,43.027,127.77,43.194,127.457,43.528z"/>
		<path fill="#1946BA" d="M132.791,47.463c0,0.228-0.1,0.341-0.299,0.341c-0.199,0-0.298-0.113-0.298-0.341V42.91
			c0-0.221,0.099-0.331,0.298-0.331c0.199,0,0.299,0.11,0.299,0.331v0.661c0.106-0.341,0.29-0.609,0.549-0.806
			c0.259-0.195,0.553-0.292,0.88-0.292c0.263,0,0.487,0.056,0.671,0.17c0.178,0.113,0.235,0.249,0.17,0.405
			c-0.063,0.149-0.209,0.174-0.437,0.074c-0.156-0.063-0.316-0.096-0.479-0.096c-0.355,0-0.65,0.159-0.885,0.479
			c-0.313,0.413-0.469,1.177-0.469,2.292V47.463z"/>
		<path fill="#1946BA" d="M139.062,42.825c0.228,0.127,0.299,0.276,0.213,0.447c-0.064,0.142-0.203,0.167-0.416,0.075
			c-0.483-0.214-0.91-0.32-1.279-0.32c-0.377,0-0.659,0.069-0.848,0.208s-0.283,0.333-0.283,0.581c0,0.249,0.105,0.448,0.315,0.598
			c0.209,0.148,0.462,0.261,0.757,0.336c0.295,0.074,0.592,0.159,0.89,0.255c0.298,0.097,0.553,0.256,0.762,0.48
			c0.21,0.224,0.314,0.517,0.314,0.879c0,0.462-0.179,0.835-0.538,1.12c-0.359,0.284-0.858,0.426-1.498,0.426
			c-0.683,0-1.223-0.134-1.621-0.405c-0.199-0.135-0.252-0.28-0.16-0.437c0.078-0.136,0.231-0.149,0.458-0.042
			c0.462,0.22,0.931,0.329,1.407,0.329c0.391,0,0.711-0.085,0.96-0.255c0.249-0.171,0.373-0.398,0.373-0.683
			c0-0.256-0.105-0.46-0.314-0.612c-0.21-0.154-0.462-0.27-0.757-0.348c-0.294-0.078-0.591-0.163-0.89-0.255
			c-0.299-0.093-0.553-0.248-0.762-0.465c-0.21-0.216-0.315-0.503-0.315-0.857c0-0.448,0.159-0.795,0.475-1.04
			c0.316-0.245,0.745-0.367,1.285-0.367C138.167,42.474,138.657,42.591,139.062,42.825z"/>
		<path fill="#1946BA" d="M144.715,43.171c0.349,0.466,0.522,1.087,0.522,1.861c0,0.831-0.21,1.519-0.629,2.063
			c-0.419,0.543-1.045,0.814-1.876,0.814c-0.591,0-1.085-0.109-1.482-0.33c-0.057,0.149-0.157,0.224-0.299,0.224
			c-0.199,0-0.298-0.113-0.298-0.341v-6.675c0-0.228,0.099-0.341,0.298-0.341s0.299,0.113,0.299,0.341v2.996
			c0.349-0.874,0.995-1.311,1.94-1.311C143.858,42.474,144.367,42.706,144.715,43.171z M141.25,45.938v1.045
			c0.427,0.248,0.924,0.372,1.492,0.372c0.661,0,1.14-0.214,1.435-0.645c0.295-0.43,0.442-0.99,0.442-1.679
			c0-0.611-0.125-1.099-0.373-1.461c-0.249-0.362-0.629-0.544-1.142-0.544C141.868,43.027,141.25,43.998,141.25,45.938z"/>
		<path fill="#1946BA" d="M147.245,45.629c0,0.555,0.102,0.981,0.304,1.28c0.202,0.298,0.55,0.446,1.039,0.446
			c0.647,0,1.113-0.27,1.396-0.81c0.285-0.54,0.428-1.24,0.428-2.101V42.92c0-0.227,0.099-0.341,0.298-0.341
			s0.299,0.114,0.299,0.341v4.543c0,0.228-0.1,0.341-0.299,0.341s-0.298-0.113-0.298-0.341v-0.864
			c-0.171,0.441-0.429,0.771-0.773,0.986c-0.345,0.217-0.713,0.325-1.104,0.325c-0.683,0-1.168-0.191-1.455-0.575
			c-0.288-0.384-0.433-0.945-0.433-1.686V42.92c0-0.227,0.1-0.341,0.299-0.341s0.299,0.114,0.299,0.341V45.629z"/>
		<path fill="#1946BA" d="M153.283,47.463c0,0.228-0.1,0.341-0.299,0.341s-0.299-0.113-0.299-0.341V42.91
			c0-0.221,0.1-0.331,0.299-0.331s0.299,0.11,0.299,0.331v0.661c0.106-0.341,0.29-0.609,0.55-0.806
			c0.258-0.195,0.552-0.292,0.879-0.292c0.263,0,0.487,0.056,0.671,0.17c0.179,0.113,0.235,0.249,0.171,0.405
			c-0.063,0.149-0.21,0.174-0.438,0.074c-0.156-0.063-0.315-0.096-0.479-0.096c-0.356,0-0.65,0.159-0.886,0.479
			c-0.313,0.413-0.469,1.177-0.469,2.292V47.463z"/>
		<path fill="#1946BA" d="M159.98,43.049c0.299,0.319,0.448,0.718,0.448,1.193c0,0.513-0.176,0.934-0.527,1.265
			c-0.352,0.33-0.855,0.495-1.509,0.495c-0.462,0-0.85-0.081-1.163-0.245c-0.284,0.191-0.426,0.405-0.426,0.64
			c0,0.427,0.601,0.657,1.802,0.692c0.362,0.016,0.666,0.039,0.912,0.075c0.244,0.035,0.48,0.097,0.708,0.182
			s0.396,0.212,0.507,0.378c0.11,0.168,0.165,0.379,0.165,0.635c0,0.505-0.228,0.912-0.683,1.221
			c-0.454,0.31-1.111,0.464-1.972,0.464c-1.543,0-2.314-0.49-2.314-1.471c0-0.513,0.285-0.925,0.854-1.237
			c-0.369-0.207-0.555-0.487-0.555-0.842c0-0.392,0.199-0.736,0.598-1.035c-0.313-0.306-0.47-0.71-0.47-1.216
			c0-0.525,0.176-0.952,0.527-1.278c0.353-0.327,0.855-0.49,1.51-0.49c0.263,0,0.525,0.035,0.789,0.105h1.642
			c0.191,0,0.288,0.075,0.288,0.224c0,0.164-0.097,0.246-0.288,0.246H159.98z M157.326,47.526c-0.547,0.235-0.821,0.579-0.821,1.034
			c0,0.271,0.134,0.498,0.4,0.683s0.709,0.278,1.327,0.278c0.696,0,1.219-0.107,1.567-0.321c0.348-0.213,0.522-0.469,0.522-0.767
			c0-0.264-0.141-0.452-0.421-0.565c-0.281-0.114-0.773-0.185-1.478-0.214C158.033,47.647,157.667,47.604,157.326,47.526z
			 M157.315,45.139c0.241,0.228,0.601,0.341,1.077,0.341s0.835-0.113,1.077-0.341c0.241-0.228,0.361-0.526,0.361-0.896
			c0-0.368-0.12-0.669-0.361-0.899c-0.242-0.232-0.601-0.348-1.077-0.348s-0.836,0.115-1.077,0.348
			c-0.242,0.23-0.362,0.531-0.362,0.899C156.953,44.612,157.073,44.911,157.315,45.139z"/>
		<path fill="#1946BA" d="M162.266,49.137c-0.12,0.242-0.281,0.31-0.479,0.203c-0.164-0.093-0.182-0.26-0.054-0.501l0.96-1.781
			c0.049-0.093,0.119-0.155,0.208-0.187c0.089-0.032,0.172-0.023,0.25,0.026c0.164,0.1,0.188,0.253,0.075,0.458L162.266,49.137z"/>
		<path fill="#1946BA" d="M167.76,40.873c0-0.22,0.104-0.345,0.309-0.372c0.435-0.071,0.938-0.107,1.515-0.107
			c1.77,0,2.654,0.687,2.654,2.058c0,0.533-0.135,0.975-0.405,1.322c-0.27,0.349-0.639,0.604-1.108,0.768l1.706,2.697
			c0.143,0.221,0.132,0.389-0.032,0.502c-0.099,0.063-0.197,0.078-0.293,0.043c-0.096-0.036-0.176-0.11-0.24-0.225l-1.813-2.857
			c-0.178,0.028-0.395,0.043-0.65,0.043c-0.377,0-0.71-0.021-1.002-0.064v2.783c0,0.1-0.028,0.181-0.085,0.245
			c-0.058,0.063-0.136,0.096-0.235,0.096c-0.099,0-0.177-0.032-0.234-0.096c-0.057-0.064-0.085-0.146-0.085-0.245V40.873z
			 M168.399,41.034v3.091c0.341,0.043,0.661,0.064,0.959,0.064c0.768,0,1.329-0.139,1.686-0.416
			c0.354-0.276,0.533-0.714,0.533-1.312c0-0.547-0.18-0.933-0.538-1.156c-0.359-0.224-0.866-0.336-1.521-0.336
			C169.271,40.97,168.896,40.991,168.399,41.034z"/>
		<path fill="#1946BA" d="M174.684,45.629c0,0.555,0.101,0.981,0.304,1.28c0.202,0.298,0.549,0.446,1.039,0.446
			c0.646,0,1.112-0.27,1.396-0.81s0.427-1.24,0.427-2.101V42.92c0-0.227,0.1-0.341,0.299-0.341c0.198,0,0.298,0.114,0.298,0.341
			v4.543c0,0.228-0.1,0.341-0.298,0.341c-0.199,0-0.299-0.113-0.299-0.341v-0.864c-0.17,0.441-0.429,0.771-0.772,0.986
			c-0.345,0.217-0.713,0.325-1.104,0.325c-0.683,0-1.168-0.191-1.456-0.575c-0.287-0.384-0.432-0.945-0.432-1.686V42.92
			c0-0.227,0.099-0.341,0.299-0.341c0.198,0,0.299,0.114,0.299,0.341V45.629z"/>
		<path fill="#1946BA" d="M183.322,42.825c0.228,0.127,0.299,0.276,0.214,0.447c-0.064,0.142-0.203,0.167-0.416,0.075
			c-0.483-0.214-0.91-0.32-1.28-0.32c-0.376,0-0.658,0.069-0.847,0.208s-0.283,0.333-0.283,0.581c0,0.249,0.105,0.448,0.315,0.598
			c0.209,0.148,0.462,0.261,0.757,0.336c0.294,0.074,0.591,0.159,0.89,0.255c0.299,0.097,0.553,0.256,0.763,0.48
			c0.21,0.224,0.313,0.517,0.313,0.879c0,0.462-0.179,0.835-0.538,1.12c-0.358,0.284-0.857,0.426-1.497,0.426
			c-0.683,0-1.224-0.134-1.621-0.405c-0.199-0.135-0.253-0.28-0.16-0.437c0.078-0.136,0.231-0.149,0.459-0.042
			c0.462,0.22,0.931,0.329,1.407,0.329c0.391,0,0.711-0.085,0.959-0.255c0.249-0.171,0.374-0.398,0.374-0.683
			c0-0.256-0.105-0.46-0.314-0.612c-0.21-0.154-0.462-0.27-0.758-0.348c-0.295-0.078-0.592-0.163-0.891-0.255
			c-0.298-0.093-0.552-0.248-0.762-0.465c-0.209-0.216-0.314-0.503-0.314-0.857c0-0.448,0.158-0.795,0.474-1.04
			c0.317-0.245,0.745-0.367,1.285-0.367C182.427,42.474,182.917,42.591,183.322,42.825z"/>
		<path fill="#1946BA" d="M188.112,42.825c0.228,0.127,0.299,0.276,0.213,0.447c-0.063,0.142-0.202,0.167-0.416,0.075
			c-0.482-0.214-0.909-0.32-1.278-0.32c-0.377,0-0.66,0.069-0.849,0.208s-0.282,0.333-0.282,0.581c0,0.249,0.105,0.448,0.314,0.598
			c0.21,0.148,0.462,0.261,0.758,0.336c0.295,0.074,0.592,0.159,0.891,0.255c0.298,0.097,0.552,0.256,0.762,0.48
			c0.209,0.224,0.314,0.517,0.314,0.879c0,0.462-0.18,0.835-0.538,1.12c-0.359,0.284-0.858,0.426-1.499,0.426
			c-0.682,0-1.222-0.134-1.62-0.405c-0.199-0.135-0.252-0.28-0.16-0.437c0.078-0.136,0.231-0.149,0.458-0.042
			c0.463,0.22,0.932,0.329,1.408,0.329c0.391,0,0.711-0.085,0.96-0.255c0.248-0.171,0.373-0.398,0.373-0.683
			c0-0.256-0.105-0.46-0.315-0.612c-0.209-0.154-0.462-0.27-0.757-0.348c-0.294-0.078-0.591-0.163-0.89-0.255
			c-0.299-0.093-0.553-0.248-0.763-0.465c-0.21-0.216-0.314-0.503-0.314-0.857c0-0.448,0.158-0.795,0.475-1.04
			c0.315-0.245,0.745-0.367,1.285-0.367C187.217,42.474,187.707,42.591,188.112,42.825z"/>
		<path fill="#1946BA" d="M189.677,40.879c0.082-0.082,0.19-0.123,0.325-0.123c0.143,0,0.254,0.041,0.336,0.123
			s0.122,0.194,0.122,0.336c0,0.135-0.04,0.243-0.122,0.325s-0.193,0.122-0.336,0.122s-0.252-0.039-0.331-0.117
			c-0.078-0.078-0.117-0.188-0.117-0.33S189.595,40.961,189.677,40.879z M189.703,42.92c0-0.227,0.1-0.341,0.299-0.341
			s0.299,0.114,0.299,0.341v4.543c0,0.228-0.1,0.341-0.299,0.341s-0.299-0.113-0.299-0.341V42.92z"/>
		<path fill="#1946BA" d="M192.008,43.262c-0.07-0.17-0.011-0.306,0.181-0.404c0.499-0.257,1.063-0.384,1.696-0.384
			c1.314,0,1.972,0.628,1.972,1.886v3.104c0,0.228-0.1,0.341-0.298,0.341c-0.199,0-0.299-0.113-0.299-0.341v-0.8
			c-0.149,0.348-0.395,0.644-0.735,0.886c-0.342,0.241-0.774,0.361-1.301,0.361s-0.945-0.133-1.258-0.399
			c-0.313-0.267-0.47-0.652-0.47-1.157c0-0.327,0.069-0.609,0.208-0.847c0.139-0.239,0.325-0.421,0.56-0.55
			c0.235-0.128,0.483-0.221,0.746-0.277c0.264-0.057,0.548-0.085,0.854-0.085c0.42,0,0.885,0.036,1.396,0.106v-0.298
			c0-0.918-0.476-1.376-1.429-1.376c-0.384,0-0.831,0.1-1.344,0.299C192.232,43.433,192.071,43.411,192.008,43.262z M194.737,46.748
			c0.349-0.404,0.522-0.842,0.522-1.311v-0.203c-0.483-0.07-0.921-0.106-1.312-0.106c-1.222,0-1.834,0.401-1.834,1.204
			c0,0.313,0.104,0.562,0.31,0.747c0.206,0.185,0.498,0.276,0.874,0.276C193.909,47.355,194.389,47.153,194.737,46.748z"/>
	</g>

</symbol>
<symbol id="kapella" viewBox="0 0 30 40">
  <g fill="none">
    <circle cx="15" cy="15" r="15" fill="#0C7CD5"/>
    <circle cx="15" cy="15" r="12.5" stroke="white"/>
    <circle cx="15" cy="38" r="2" fill="#0C7CD5"/>
    <path d="M17 30L15 34L13 30H17Z" fill="#0C7CD5" stroke="#0C7CD5"/>
    <path d="M16.25 21.3333V13.4948H20V11.151H16.25V8H13.75V11.151H10V13.4948H13.75V21.3333H16.25Z" fill="white"/>
  </g>

</symbol>
<symbol id="konservatory" viewBox="0 0 30 40">
  <g fill="none">
    <circle cx="15" cy="15" r="15" fill="#ED6401"/>
    <circle cx="15" cy="15" r="12.5" stroke="white"/>
    <circle cx="15" cy="38" r="2" fill="#ED6401"/>
    <path d="M17 30L15 34L13 30H17Z" fill="#ED6401" stroke="#ED6401"/>
    <path d="M20.9069 8L20.7694 8.11973L20.6708 8.02098L20.5704 8.12125L20.463 8.01396L20.2754 8.20153L20.3826 8.309L20.2825 8.4093L20.3549 8.4816L19.1878 9.43767L19.2405 9.49043L16.4401 12.1276C15.4854 11.3705 14.2641 11.2782 13.5803 11.962C13.3359 12.2062 13.1028 12.6091 12.9312 13.074C12.7809 13.1817 12.6034 13.2778 12.4411 13.284C12.4411 13.284 13.0669 13.8675 12.1177 14.6479C11.1684 15.4288 10.6974 14.9856 10.4864 14.7324C10.4864 14.7324 10.4511 15.0047 10.2223 15.3172C9.58342 15.4495 8.95896 15.7159 8.55987 16.1668C7.47713 17.3904 8.13793 18.9512 9.08002 19.8933C10.2354 21.0486 11.7097 21.7637 12.9191 20.5544C13.3403 20.1333 13.6244 19.5336 13.7509 18.8898C14.0737 18.6445 14.3606 18.6069 14.3606 18.6069C14.1075 18.3959 13.6646 17.9248 14.445 16.9755C15.2254 16.0263 15.8088 16.6521 15.8088 16.6521C15.8147 16.4944 15.9059 16.322 16.0101 16.1746C16.4816 16.0024 16.8908 15.7671 17.1379 15.5202C17.8217 14.8364 17.7294 13.6149 16.9723 12.6603L19.6101 9.85893L19.662 9.91073L20.623 8.75036L20.6907 8.81781L20.7909 8.71746L20.8982 8.82492L21.0861 8.63672L20.9786 8.52943L21.0789 8.42907L20.9868 8.33703L21.1072 8.20018L20.9069 8Z" fill="white"/>
  </g>

</symbol>
<symbol id="living-house" viewBox="0 0 30 40">
<g fill="none">
  <circle cx="15" cy="15" r="15" fill="#007761"/>
<circle cx="15" cy="15" r="12.5" stroke="white"/>
<circle cx="15" cy="38" r="2" fill="#007761"/>
<path d="M17 30L15 34L13 30H17Z" fill="#007761" stroke="#007761"/>
<path d="M9.75 20.125H14.1246V16.625H15.875V20.125H20.2502V14.875H22L15.0002 7.87503L8 14.875H9.75V20.125Z" fill="white"/>
</g>

</symbol>
<symbol id="menu" viewBox="0 0 24 24">
<path d="M3 12H21" stroke="#4F4F4F" stroke-linecap="round" stroke-linejoin="round" fill="none"/>
<path d="M3 6H21" stroke="#4F4F4F" stroke-linecap="round" stroke-linejoin="round" fill="none"/>
<path d="M3 18H21" stroke="#4F4F4F" stroke-linecap="round" stroke-linejoin="round" fill="none"/>

</symbol>
<symbol id="money-house" viewBox="0 0 30 40">
  <g fill="none">
    <circle cx="15" cy="15" r="15" fill="#320877"/>
    <circle cx="15" cy="15" r="12.5" stroke="white"/>
    <circle cx="15" cy="38" r="2" fill="#320877"/>
    <path d="M17 30L15 34L13 30H17Z" fill="#320877" stroke="#320877"/>
    <path d="M19.8449 8.00075C19.8287 8.00115 19.8126 8.00316 19.7968 8.00674L10.0884 10.4767C9.97805 10.5022 9.89916 10.5994 9.89697 10.7126V19.659H13.4118V16.0466H16.5833V19.6639H20.0981V8.24139C20.0946 8.10502 19.9813 7.99729 19.8449 8.00075ZM12.4263 14.8573H11.2283V13.6581H12.4275L12.4263 14.8573ZM12.4263 12.7405H11.2283V11.5389H12.4275L12.4263 12.7405ZM14.5394 14.8573H13.3402V13.6581H14.5394V14.8573ZM14.5394 12.7405H13.3402V11.5389H14.5394V12.7405ZM16.6549 14.8573H15.4557V13.6581H16.6549V14.8573ZM16.6549 12.738H15.4557V11.5389H16.6549V12.738ZM18.768 14.8548H17.5688V13.6556H18.768V14.8548ZM18.768 12.738H17.5688V11.5389H18.768V12.738Z" fill="white"/>
    <path d="M20.2809 20.0331H20.2759H9.71912C8.77191 20.0385 8.0054 20.8051 8 21.7523C8 21.8887 8.11059 21.9993 8.247 21.9993H21.753C21.8894 21.9993 22 21.8887 22 21.7523C21.9946 20.8051 21.2281 20.0385 20.2809 20.0331Z" fill="white"/>
  </g>

</symbol>
<symbol id="museum" viewBox="0 0 30 40">
  <g fill="none">
    <circle cx="15" cy="15" r="15" fill="#009090"/>
    <circle cx="15" cy="15" r="12.5" stroke="white"/>
    <circle cx="15" cy="38" r="2" fill="#009090"/>
    <path d="M17 30L15 34L13 30H17Z" fill="#009090" stroke="#009090"/>
    <path d="M15 7L22 11.375H8L15 7ZM11.0625 12.25L10.625 13.125V18.375H8.875V13.125L8.4375 12.25H11.0625ZM14.5625 12.25L14.125 13.125V18.375H12.375V13.125L11.9375 12.25H14.5625ZM18.0625 12.25L17.625 13.125V18.375H15.875V13.125L15.4375 12.25H18.0625ZM21.5625 12.25L21.125 13.125V18.375H19.375V13.125L18.9375 12.25H21.5625ZM21.5625 19.25L22 21H8L8.4375 19.25H21.5625ZM14.125 9.625C14.125 10.1082 14.5168 10.5 15 10.5C15.4832 10.5 15.875 10.1082 15.875 9.625C15.875 9.14175 15.4832 8.75 15 8.75C14.5168 8.75 14.125 9.14175 14.125 9.625Z" fill="white"/>
  </g>

</symbol>
<symbol id="palace" viewBox="0 0 30 40">
  <g fill="none">
    <circle cx="15" cy="15" r="15" fill="#AE3D3F"/>
    <circle cx="15" cy="15" r="12.5" stroke="white"/>
    <circle cx="15" cy="38" r="2" fill="#AE3D3F"/>
    <path d="M17 30L15 34L13 30H17Z" fill="#AE3D3F" stroke="#AE3D3F"/>
    <path d="M22.7753 18.4803V13.1582H21.4881V12.4078H21.7473V11.9713H20.7996V11.6182H20.6391C20.6616 11.501 20.6712 11.3076 20.5299 11.1672C20.3109 10.9489 20.217 10.9642 20.2025 10.8213C20.1865 10.6825 20.2643 10.5429 20.2643 10.5429L20.2362 10.3406C20.2362 10.3406 20.5909 9.79414 20.5147 9.77809C20.4369 9.76284 20.1271 10.2628 20.1271 10.2628L19.9233 10.2154C19.9233 10.2154 19.7202 9.69945 19.6255 9.73075C19.5341 9.76204 19.8005 10.3085 19.8005 10.3085C19.8005 10.3085 19.7066 10.4963 19.7515 10.6207C19.8005 10.7467 19.9233 10.8093 19.8759 10.8558C19.8278 10.9024 19.7989 11.0428 19.7363 10.9971C19.6737 10.9481 19.5798 10.9345 19.5621 10.9971C19.5477 11.0589 19.4233 11.1054 19.4402 11.2916C19.4474 11.4007 19.4891 11.5291 19.5212 11.6182H19.388V11.9721H19.0365L15.374 10.4121V9.70426L15.0754 9.20833V8.93789L15.0321 8.89536H15.0281L14.9848 8.93789V9.20833L14.6878 9.70426V10.4121L11.0084 11.9713H10.4483V11.6182H10.3127C10.3456 11.5283 10.3865 11.3999 10.3953 11.2916C10.4106 11.1054 10.2862 11.0581 10.2709 10.9971C10.2541 10.9345 10.1602 10.9481 10.0992 10.9971C10.0374 11.042 10.0037 10.9016 9.95957 10.855C9.91303 10.8085 10.0374 10.7467 10.0848 10.6199C10.1297 10.4963 10.0374 10.3093 10.0374 10.3093C10.0374 10.3093 10.3006 9.76284 10.2075 9.73155C10.1153 9.69945 9.91303 10.2163 9.91303 10.2163L9.7092 10.262C9.7092 10.262 9.39783 9.76284 9.31919 9.77729C9.24215 9.79414 9.60086 10.3406 9.60086 10.3406L9.56796 10.5429C9.56796 10.5429 9.64821 10.6825 9.63055 10.8213C9.61451 10.9634 9.52061 10.9481 9.30474 11.1664C9.1619 11.3068 9.17153 11.4994 9.1948 11.6182H9.03431V11.9721H8.29522V12.4086H8.51269V13.1582H7.2247V18.4803H7V19.1038H23V18.4803H22.7753ZM10.2605 16.2678H9.41148V14.8073H10.2613L10.2605 16.2678ZM18.8688 16.2678H18.0214V14.8073H18.8688V16.2678ZM18.4483 16.8255C18.8174 16.8255 18.8688 17.2196 18.8688 17.2196V18.4795H18.0214V17.2196C18.0222 17.2196 18.0767 16.8255 18.4483 16.8255ZM17.1475 16.2678H16.3016V14.8073H17.1475V16.2678ZM16.7253 16.8255C17.0945 16.8255 17.1459 17.2196 17.1459 17.2196V18.4795H16.3008V17.2196C16.3016 17.2196 16.3538 16.8255 16.7253 16.8255ZM15.4245 16.2678H14.5771V14.8073H15.4253V16.2678H15.4245ZM15.0016 16.8255C15.3724 16.8255 15.4245 17.2196 15.4245 17.2196V18.4795H14.5771V17.2196C14.5771 17.2196 14.6325 16.8255 15.0016 16.8255ZM13.7032 16.2678H12.8566V14.8073H13.7032V16.2678ZM13.2803 16.8255C13.651 16.8255 13.7016 17.2196 13.7016 17.2196V18.4795H12.8566V17.2196C12.8566 17.2196 12.9111 16.8255 13.2803 16.8255ZM11.9818 16.2678H11.1336V14.8073H11.9826L11.9818 16.2678ZM11.5581 16.8255C11.9289 16.8255 11.9818 17.2196 11.9818 17.2196V18.4795H11.1336V17.2196C11.1336 17.2196 11.189 16.8255 11.5581 16.8255ZM19.7435 18.4803V17.2204C19.7435 17.2204 19.7989 16.8263 20.1688 16.8263C20.5396 16.8263 20.5909 17.2204 20.5909 17.2204V18.4803H19.7435ZM19.7435 16.2678V14.8073H20.5925V16.2678H19.7435ZM21.509 14.8009H22.2962V16.3184H21.509V14.8009ZM18.8624 13.5522C19.0477 13.0924 19.5565 12.7625 20.156 12.7625C20.7554 12.7625 21.2642 13.0932 21.4472 13.5522H18.8624ZM8.7109 12.1791H21.2907V12.4993H8.7109V12.1791ZM9.84562 12.7625C10.4435 12.7625 10.9523 13.0932 11.136 13.5522H8.55121C8.73578 13.0924 9.24456 12.7625 9.84562 12.7625ZM7.70218 14.8009H8.49263V16.3184H7.70218V14.8009ZM9.41148 17.2196C9.41148 17.2196 9.46604 16.8255 9.83599 16.8255C10.2059 16.8255 10.2597 17.2196 10.2597 17.2196V18.4795H9.41148V17.2196Z" fill="white"/>
  </g>

</symbol>
<symbol id="search" viewBox="0 0 24 24">
<path d="M11 19C15.4183 19 19 15.4183 19 11C19 6.58172 15.4183 3 11 3C6.58172 3 3 6.58172 3 11C3 15.4183 6.58172 19 11 19Z" stroke="#4F4F4F" stroke-linecap="round" stroke-linejoin="round" fill="none"/>
<path d="M21 21L16.65 16.65" stroke="#4F4F4F" stroke-linecap="round" stroke-linejoin="round" fill="none"/>

</symbol>
<symbol id="study" viewBox="0 0 30 40">
  <g fill="none">
    <circle cx="15" cy="15" r="15" fill="#084677"/>
    <circle cx="15" cy="15" r="12.5" stroke="white"/>
    <circle cx="15" cy="38" r="2" fill="#084677"/>
    <path d="M17 30L15 34L13 30H17Z" fill="#084677" stroke="#084677"/>
    <path d="M11.407 10.6366V9.67427C11.407 9.30229 11.7089 9 12.0805 9H17.9195C18.2915 9 18.5934 9.30229 18.5934 9.67427V10.6366C18.5934 11.0086 18.2915 11.3101 17.9195 11.3101H12.0805C11.7089 11.3101 11.407 11.0086 11.407 10.6366ZM19.1441 16.5296L17.8061 12.4111C17.7157 12.1339 17.4572 11.9463 17.1654 11.9463H12.8354C12.5436 11.9463 12.2851 12.1347 12.1947 12.4111L10.8559 16.5296C10.7959 16.7164 10.8194 16.9206 10.9216 17.0884L14.425 22.8294C14.4667 22.8967 14.5218 22.953 14.5822 23.0004V17.2213C14.0332 17.0438 13.6324 16.5345 13.6324 15.9258C13.6324 15.1713 14.2447 14.5583 15 14.5583C15.7553 14.5583 16.3676 15.1713 16.3676 15.9258C16.3676 16.5345 15.968 17.045 15.4174 17.2213V23.0004C15.4773 22.953 15.5328 22.8967 15.575 22.8294L19.0784 17.0884C19.1801 16.9202 19.2044 16.7164 19.1441 16.5296Z" fill="white"/>
  </g>

</symbol>
<symbol id="theater" viewBox="0 0 30 40">
  <g fill="none">
    <circle cx="15" cy="15" r="15" fill="#AF155F"/>
    <circle cx="15" cy="15" r="12.5" stroke="white"/>
    <circle cx="15" cy="38" r="2" fill="#AF155F"/>
    <path d="M17 30L15 34L13 30H17Z" fill="#AF155F" stroke="#AF155F"/>
    <path d="M17.817 9C13.6079 9 13.6362 9.8322 13.6362 9.8322V12.145C14.418 12.0751 14.9551 11.9558 15.3021 11.8497C15.8187 11.6918 16.0253 11.5327 16.0617 11.5021C16.1393 11.4072 16.2484 11.3589 16.364 11.3589C16.4122 11.3589 16.4613 11.3671 16.5099 11.3839C16.6776 11.442 16.7798 11.6118 16.7798 11.7891V15.1328C17.1062 14.9708 17.4573 14.8884 17.8358 14.8872C17.9363 14.892 18.0445 14.8986 18.195 14.9182C18.3295 14.9442 18.4507 14.9685 18.576 15.0124C18.8224 15.0984 19.0621 15.2204 19.2765 15.3944C19.6621 15.6993 19.997 16.1712 20.0644 16.728C20.0755 16.8196 20.0047 16.8729 19.9154 16.8494C19.487 16.7366 19.1594 16.7144 18.8378 16.6899L18.3199 16.6671L17.7982 16.6591C17.5 16.6623 17.1424 16.6641 16.7955 16.6867C16.7903 16.687 16.7848 16.6876 16.7798 16.6879C16.7783 17.6109 16.5712 18.4791 16.2088 19.2352C16.7041 19.4769 17.2474 19.6109 17.8178 19.6109C20.1276 19.6109 22.0001 17.4214 22.0001 14.7217V9.83218C22.0001 9.83218 22.0259 9 17.817 9ZM20.5869 13.5394C20.0843 13.9264 19.3604 13.8897 18.8998 13.4291C18.4392 12.9686 18.4025 12.2447 18.7895 11.7421C18.8458 11.6689 18.9527 11.6695 19.018 11.7348L20.5941 13.3109C20.6594 13.3762 20.66 13.4831 20.5869 13.5394Z" fill="white"/>
    <path d="M16.3637 11.7892C16.3637 11.7892 15.6019 12.6215 12.1821 12.6215C8.76258 12.6215 8 11.7892 8 11.7892V16.6783C8 19.3782 9.87263 21.5659 12.1817 21.5659C14.4913 21.5659 16.3637 19.3782 16.3637 16.6783V11.7892ZM9.32455 16.1892C9.23221 16.1892 9.15621 16.1141 9.16811 16.0225C9.24981 15.3935 9.78768 14.9076 10.439 14.9076C11.0904 14.9076 11.6282 15.3935 11.7099 16.0225C11.7218 16.1141 11.6458 16.1892 11.5535 16.1892H9.32455ZM14.4277 17.8428C14.3595 18.398 14.024 18.8685 13.6393 19.1746C13.1998 19.5146 12.709 19.6804 12.1619 19.6819C12.0611 19.6772 11.9539 19.6723 11.8026 19.6511C11.6678 19.625 11.5466 19.6025 11.4213 19.5567C11.1751 19.4706 10.9355 19.3487 10.7216 19.1764C10.3364 18.8717 10.0009 18.3984 9.93322 17.8415C9.92208 17.7498 9.99285 17.6966 10.0821 17.7202C10.5107 17.8332 10.839 17.8563 11.1607 17.8793L11.6785 17.9021L12.1995 17.9104C12.4975 17.9089 12.8553 17.9072 13.203 17.8827C13.5247 17.8595 13.8526 17.8362 14.2791 17.7222C14.3683 17.6983 14.439 17.7512 14.4277 17.8428ZM15.0391 16.1892H12.8102C12.7178 16.1892 12.6418 16.1141 12.6537 16.0225C12.7355 15.3935 13.2733 14.9076 13.9247 14.9076C14.576 14.9076 15.1139 15.3935 15.1956 16.0225C15.2075 16.1141 15.1315 16.1892 15.0391 16.1892Z" fill="white"/>
  </g>

</symbol></svg>