<svg width="24" height="24" viewBox="0 0 24 24" fill="none" xmlns="http://www.w3.org/2000/svg">
<path d="M7 22H4C3.46957 22 2.96086 21.7893 2.58579 21.4142C2.21071 21.0391 2 20.5304 2 20V13C2 12.4695 2.21071 11.9608 2.58579 11.5858C2.96086 11.2107 3.46957 11 4 11H7M14 8.99997V4.99997C14 4.20432 13.6839 3.44126 13.1213 2.87865C12.5587 2.31604 11.7956 1.99997 11 1.99997L7 11V22H18.28C18.7623 22.0054 19.2304 21.8364 19.5979 21.524C19.9654 21.2116 20.2077 20.7769 20.28 20.3L21.66 11.3C21.7035 11.0133 21.6842 10.7207 21.6033 10.4422C21.5225 10.1638 21.3821 9.90626 21.1919 9.68748C21.0016 9.4687 20.7661 9.2939 20.5016 9.17519C20.2371 9.05647 19.9499 8.99669 19.66 8.99997H14Z" stroke="#4F4F4F" stroke-linecap="round" stroke-linejoin="round"/>
</svg>
