<svg width="24" height="24" viewBox="0 0 24 24" fill="none" xmlns="http://www.w3.org/2000/svg">
<path d="M17 21V19C17 17.9391 16.5786 16.9217 15.8284 16.1715C15.0783 15.4214 14.0609 15 13 15H5C3.93913 15 2.92172 15.4214 2.17157 16.1715C1.42143 16.9217 1 17.9391 1 19V21" stroke="#4F4F4F" stroke-linecap="round" stroke-linejoin="round"/>
<path d="M9 11C11.2091 11 13 9.20911 13 6.99997C13 4.79083 11.2091 2.99997 9 2.99997C6.79086 2.99997 5 4.79083 5 6.99997C5 9.20911 6.79086 11 9 11Z" stroke="#4F4F4F" stroke-linecap="round" stroke-linejoin="round"/>
<path d="M23 21V19C22.9993 18.1137 22.7044 17.2527 22.1614 16.5523C21.6184 15.8518 20.8581 15.3515 20 15.13" stroke="#4F4F4F" stroke-linecap="round" stroke-linejoin="round"/>
<path d="M16 3.12997C16.8604 3.35028 17.623 3.85068 18.1676 4.55228C18.7122 5.25389 19.0078 6.1168 19.0078 7.00497C19.0078 7.89314 18.7122 8.75605 18.1676 9.45766C17.623 10.1593 16.8604 10.6597 16 10.88" stroke="#4F4F4F" stroke-linecap="round" stroke-linejoin="round"/>
</svg>
