<svg width="72" height="88" viewBox="0 0 72 88" fill="none" xmlns="http://www.w3.org/2000/svg">
<path d="M72 36C72 64 36 88 36 88C36 88 0 64 0 36C1.42273e-07 26.4522 3.79285 17.2955 10.5442 10.5442C17.2955 3.79285 26.4522 0 36 0C45.5478 0 54.7045 3.79285 61.4558 10.5442C68.2072 17.2955 72 26.4522 72 36Z" fill="#F0C119"/>
<path d="M35.9995 48.0003C42.6269 48.0003 47.9995 42.6277 47.9995 36.0003C47.9995 29.3729 42.6269 24.0003 35.9995 24.0003C29.3721 24.0003 23.9995 29.3729 23.9995 36.0003C23.9995 42.6277 29.3721 48.0003 35.9995 48.0003Z" fill="white"/>
<circle cx="36" cy="36" r="36" fill="#F0C119"/>
<path fill-rule="evenodd" clip-rule="evenodd" d="M16.5123 35.1503C15.6558 35.9294 14.3256 35.8669 13.5454 35.0105C12.7663 34.1541 12.8298 32.8238 13.6852 32.0447L33.201 14.2765C35.0695 12.5745 37.9342 12.5745 39.8027 14.2765L48.1292 21.8576V19.206C48.1292 18.4734 48.7289 17.8737 49.4615 17.8737H52.4749C53.2074 17.8737 53.8071 18.4734 53.8071 19.206V27.027L59.3185 32.0447C60.1739 32.8238 60.2374 34.1541 59.4583 35.0105C58.6781 35.8669 57.3479 35.9294 56.4914 35.1503C49.742 29.0045 43.9006 23.6864 36.9757 17.3821C36.71 17.1392 36.2937 17.1392 36.028 17.3821L16.5123 35.1503Z" fill="white"/>
<path fill-rule="evenodd" clip-rule="evenodd" d="M53.6663 35.8957V52.9433C53.6663 54.4876 52.4074 55.7475 50.8631 55.7475H41.4085V41.4834H31.5951V55.7475H22.1405C20.5962 55.7475 19.3373 54.4876 19.3373 52.9433V35.8957L36.5018 20.2686L53.6663 35.8957Z" fill="white"/>
</svg>
