<svg width="72" height="88" viewBox="0 0 72 88" fill="none" xmlns="http://www.w3.org/2000/svg">
<path d="M72 36C72 64 36 88 36 88C36 88 0 64 0 36C1.42273e-07 26.4522 3.79285 17.2955 10.5442 10.5442C17.2955 3.79285 26.4522 0 36 0C45.5478 0 54.7045 3.79285 61.4558 10.5442C68.2072 17.2955 72 26.4522 72 36Z" fill="#F75A44"/>
<path d="M35.9995 48.0003C42.6269 48.0003 47.9995 42.6277 47.9995 36.0003C47.9995 29.3729 42.6269 24.0003 35.9995 24.0003C29.3721 24.0003 23.9995 29.3729 23.9995 36.0003C23.9995 42.6277 29.3721 48.0003 35.9995 48.0003Z" fill="white"/>
<circle cx="36" cy="36" r="36" fill="#F75A44"/>
<path d="M54.4334 47.3408L51.8042 40.9203C53.525 39.1341 54.1371 36.4327 53.1384 33.9937L49.9299 26.1584L47.3292 19.8075C47.1419 19.3522 46.6224 19.1367 46.1706 19.3223L36.2068 23.4025L26.2438 19.3223C26.0261 19.233 25.7815 19.2339 25.5639 19.3249C25.3471 19.416 25.1745 19.5894 25.0852 19.8075L19.276 33.9932C18.623 35.5884 18.6299 37.3427 19.2959 38.9327C19.6108 39.6844 20.059 40.3532 20.6086 40.9223L17.9807 47.341C16.0416 47.081 14.6016 47.567 14.1457 48.6828C13.4 50.5069 15.6312 52.5348 18.2206 53.5949C19.4338 54.0918 20.6739 54.3611 21.737 54.3611C21.8003 54.3611 21.8636 54.3602 21.9252 54.3581C23.7497 54.3013 24.3654 53.4523 24.571 52.9515C25.0274 51.8356 24.3457 50.4798 22.7865 49.3095L25.4164 42.8873C26.2048 42.8664 26.9917 42.7051 27.7414 42.391C29.3309 41.725 30.5658 40.4797 31.2196 38.8846L36.2068 26.7059L41.1939 38.8846C41.8478 40.4797 43.0826 41.725 44.6722 42.391C45.4227 42.7051 46.2089 42.8664 46.998 42.8873L49.6277 49.3089C48.069 50.4798 47.3862 51.8361 47.8434 52.9519C48.251 53.9479 49.335 54.3641 50.6566 54.3641C51.7553 54.3641 53.0179 54.0767 54.1929 53.5949C55.4781 53.069 56.6063 52.3393 57.3685 51.5406C58.6294 50.2212 58.4724 49.1836 58.2678 48.6828C57.8105 47.568 56.3713 47.0809 54.4334 47.3408ZM22.9268 52.2786C22.8921 52.3649 22.5765 52.5608 21.8706 52.583C21.0095 52.6064 19.9376 52.3787 18.8935 51.9516C16.5522 50.993 15.6702 49.6471 15.7899 49.3557C15.848 49.2111 16.3443 48.9967 17.2805 49.0514L17.2702 49.0765C17.0846 49.5305 17.3023 50.0491 17.7558 50.2346C17.8659 50.2797 17.9795 50.3014 18.0923 50.3014C18.4417 50.3014 18.773 50.0933 18.9144 49.7494L22.0674 42.048C22.3041 42.1816 22.5471 42.3063 22.8028 42.4109C23.0599 42.5163 23.3221 42.598 23.586 42.669L20.4319 50.3712C20.2463 50.8252 20.464 51.3438 20.9175 51.5293C21.0277 51.5744 21.1413 51.5961 21.254 51.5961C21.6035 51.5961 21.9347 51.388 22.0761 51.0441L22.086 51.0201C22.7859 51.6349 22.9861 52.1338 22.9268 52.2786ZM29.5754 38.2116C29.102 39.3676 28.207 40.2703 27.0546 40.7529C25.903 41.2364 24.6317 41.2407 23.4757 40.7676C22.3198 40.2942 21.417 39.3988 20.934 38.2463C20.451 37.0943 20.4458 35.823 20.9201 34.6666L23.7922 27.653L32.4478 31.1974L29.5754 38.2116ZM33.1207 29.5541L24.4651 26.0097L26.3929 21.3021L35.0482 24.8471L33.1207 29.5541ZM46.0215 21.3021L47.9492 26.0097L39.2928 29.5541L37.3653 24.8471L46.0215 21.3021ZM42.8381 38.2116L39.9658 31.1974L48.6222 27.653L51.4943 34.6666C51.9677 35.823 51.9625 37.0943 51.4804 38.2463C50.9974 39.3988 50.0946 40.2942 48.9387 40.7676C47.7819 41.2416 46.5114 41.2364 45.359 40.7529C44.2065 40.2703 43.3116 39.3676 42.8381 38.2116ZM56.0842 50.3144C55.4989 50.9271 54.5641 51.5241 53.52 51.9516C51.1777 52.9107 49.6055 52.5699 49.4867 52.2786C49.4274 52.1338 49.6278 51.6347 50.3283 51.0198L50.3383 51.0441C50.4797 51.388 50.8109 51.5961 51.1604 51.5961C51.2731 51.5961 51.3867 51.5744 51.4969 51.5293C51.9504 51.3438 52.1681 50.8252 51.9825 50.3712L48.8284 42.669C49.0924 42.598 49.3546 42.5163 49.6116 42.4109C49.8684 42.3058 50.1108 42.1812 50.3462 42.0479L53.5 49.7494C53.6414 50.0933 53.9727 50.3014 54.3221 50.3014C54.4349 50.3014 54.5485 50.2797 54.6586 50.2346C55.1121 50.0491 55.3298 49.5305 55.1442 49.0765L55.1339 49.0513C56.0694 48.9968 56.5651 49.2113 56.6245 49.3562C56.6592 49.442 56.5725 49.8032 56.0842 50.3144Z" fill="white"/>
<path d="M29.5754 38.2116C29.102 39.3676 28.207 40.2703 27.0546 40.7529C25.903 41.2364 24.6317 41.2407 23.4757 40.7676C22.3198 40.2942 21.417 39.3988 20.934 38.2463C20.451 37.0943 20.4458 35.823 20.9201 34.6666L23.7922 27.653L32.4478 31.1974L29.5754 38.2116Z" fill="white"/>
<path d="M42.8381 38.2116L39.9658 31.1974L48.6222 27.653L51.4943 34.6666C51.9677 35.823 51.9625 37.0943 51.4804 38.2463C50.9974 39.3988 50.0946 40.2942 48.9387 40.7676C47.7819 41.2416 46.5114 41.2364 45.359 40.7529C44.2065 40.2703 43.3116 39.3676 42.8381 38.2116Z" fill="white"/>
<path d="M22.9268 52.2786C22.8921 52.3649 22.5765 52.5608 21.8706 52.583C21.0095 52.6064 19.9376 52.3787 18.8935 51.9516C16.5522 50.993 15.6702 49.6471 15.7899 49.3557C15.848 49.2111 16.3443 48.9967 17.2805 49.0514L17.2702 49.0765C17.0846 49.5305 17.3023 50.0491 17.7558 50.2346C17.8659 50.2797 17.9795 50.3014 18.0923 50.3014C18.4417 50.3014 18.773 50.0933 18.9144 49.7494L22.0674 42.048C22.3041 42.1816 22.5471 42.3063 22.8028 42.4109C23.0599 42.5163 23.3221 42.598 23.586 42.669L20.4319 50.3712C20.2463 50.8252 20.464 51.3438 20.9175 51.5293C21.0277 51.5744 21.1413 51.5961 21.254 51.5961C21.6035 51.5961 21.9347 51.388 22.0761 51.0441L22.086 51.0201C22.7859 51.6349 22.9861 52.1338 22.9268 52.2786Z" fill="white"/>
<path d="M56.0842 50.3144C55.4989 50.9271 54.5641 51.5241 53.52 51.9516C51.1777 52.9107 49.6055 52.5699 49.4867 52.2786C49.4274 52.1338 49.6278 51.6347 50.3283 51.0198L50.3383 51.0441C50.4797 51.388 50.8109 51.5961 51.1604 51.5961C51.2731 51.5961 51.3867 51.5744 51.4969 51.5293C51.9504 51.3438 52.1681 50.8252 51.9825 50.3712L48.8284 42.669C49.0924 42.598 49.3546 42.5163 49.6116 42.4109C49.8684 42.3058 50.1108 42.1812 50.3462 42.0479L53.5 49.7494C53.6414 50.0933 53.9727 50.3014 54.3221 50.3014C54.4349 50.3014 54.5485 50.2797 54.6586 50.2346C55.1121 50.0491 55.3298 49.5305 55.1442 49.0765L55.1339 49.0513C56.0694 48.9968 56.5651 49.2113 56.6245 49.3562C56.6592 49.442 56.5725 49.8032 56.0842 50.3144Z" fill="white"/>
<path d="M35.3188 14.888V18.0974C35.3188 18.5878 35.716 18.9854 36.2068 18.9854C36.6977 18.9854 37.0948 18.5878 37.0948 18.0974V14.888C37.0948 14.3976 36.6977 14 36.2068 14C35.716 14 35.3188 14.3976 35.3188 14.888Z" fill="white"/>
<path d="M30.4885 15.7209C30.0792 15.9915 29.9673 16.5426 30.2379 16.9515L32.0087 19.6276C32.1795 19.886 32.4622 20.0256 32.7501 20.0256C32.9183 20.0256 33.0883 19.9779 33.2392 19.8782C33.6485 19.6076 33.7604 19.0565 33.4898 18.6477L31.719 15.9715C31.4476 15.5622 30.8978 15.4504 30.4885 15.7209Z" fill="white"/>
<path d="M40.6953 15.9711L38.9237 18.6472C38.6531 19.0565 38.765 19.6072 39.1743 19.8782C39.3252 19.9779 39.4952 20.0256 39.6634 20.0256C39.9513 20.0256 40.234 19.886 40.4048 19.628L42.1765 16.9519C42.447 16.5426 42.3352 15.9919 41.9259 15.7209C41.5157 15.4504 40.9659 15.5622 40.6953 15.9711Z" fill="white"/>
</svg>
