<svg width="72" height="88" viewBox="0 0 72 88" fill="none" xmlns="http://www.w3.org/2000/svg">
<path d="M72 36C72 64 36 88 36 88C36 88 0 64 0 36C1.42273e-07 26.4522 3.79285 17.2955 10.5442 10.5442C17.2955 3.79285 26.4522 0 36 0C45.5478 0 54.7045 3.79285 61.4558 10.5442C68.2072 17.2955 72 26.4522 72 36Z" fill="#46515F"/>
<path d="M35.9995 48.0003C42.6269 48.0003 47.9995 42.6277 47.9995 36.0003C47.9995 29.3729 42.6269 24.0003 35.9995 24.0003C29.3721 24.0003 23.9995 29.3729 23.9995 36.0003C23.9995 42.6277 29.3721 48.0003 35.9995 48.0003Z" fill="white"/>
<circle cx="36" cy="36" r="36" fill="#46515F"/>
<path d="M48.4603 30.6425C46.6938 30.4819 45.1415 29.679 44.0173 28.2872C42.8932 26.949 42.3579 25.236 42.5185 23.4695C42.6791 21.703 43.482 20.1507 44.8738 19.0265C46.2121 17.9024 47.925 17.3671 49.6915 17.5277C53.0104 17.8489 55.5798 20.5254 55.6869 23.8442L59.1128 23.7372C58.9522 18.6518 55.0445 14.53 50.0127 14.0483C47.3362 13.7806 44.7668 14.6371 42.6791 16.35C42.2509 16.7248 41.8226 17.153 41.4479 17.5812L35.9343 17.0995L35.6132 20.686C34.489 19.6689 32.5619 19.1336 30.3137 19.4548C28.9219 19.6689 27.5837 20.1507 26.6737 20.9001C25.5495 21.7566 25.0142 22.8807 25.1748 23.9513C25.2819 24.7542 25.7636 25.4501 26.5131 25.9319L25.2283 27.1096C24.6395 26.4672 23.9436 26.146 23.1942 26.0925C21.053 26.039 19.3936 28.5013 19.3401 31.7667C19.2865 33.212 19.6077 34.5502 20.1965 35.6208C20.4642 36.1561 20.8389 36.5844 21.2136 36.9055L17.5736 37.762L18.6977 43.1685C18.323 43.5968 17.9483 44.025 17.6271 44.5603C16.1818 46.8086 15.6465 49.4851 16.2353 52.108C17.1989 56.551 20.9995 59.7628 25.4425 60.0305C25.9242 60.084 26.406 60.0305 26.9413 60.0305L26.6201 56.6045C23.3013 56.9257 20.3036 54.6775 19.6077 51.4121C19.233 49.6992 19.5542 47.9327 20.5177 46.4874C21.4813 45.0421 22.9266 44.025 24.6395 43.6503C26.3525 43.2756 28.119 43.5968 29.5643 44.5603C31.0096 45.5238 32.0266 46.9692 32.4014 48.6821C33.0972 52.001 31.1702 55.3198 27.9048 56.2834L28.9219 59.5487C33.9002 57.9963 36.8443 53.018 35.7202 47.9327C35.1849 45.3097 33.6325 43.0615 31.3843 41.6162C30.7955 41.2415 30.1531 40.9203 29.5107 40.6526L28.4401 35.4602L25.6031 36.0491C26.2454 35.032 26.6737 33.6402 26.7272 32.0343C26.7272 31.1778 26.6201 30.3214 26.406 29.5184L29.1896 26.949C29.2966 26.949 29.4572 27.0025 29.5643 27.0025C30.1531 27.056 30.7419 27.0025 31.3308 26.949C32.9367 26.7348 34.2214 26.146 35.1849 25.3966L34.9173 28.2872L40.2167 28.769C41.7691 31.6596 44.6597 33.7473 48.1927 34.0684C48.2997 34.0684 48.4068 34.0684 48.5139 34.0684C53.5457 34.3361 57.9887 30.9102 58.8987 25.8784L55.5263 25.236C54.8839 28.6619 51.8862 30.9637 48.4603 30.6425ZM23.0336 29.1972C23.0872 29.1972 23.0872 29.1972 23.0336 29.1972C23.1942 29.1972 23.3548 28.9296 23.5154 29.0902L22.9266 29.5184C22.3913 30.0002 22.3913 30.6961 22.873 31.2314C23.0872 31.499 23.4083 31.5525 23.7295 31.6061C23.9972 31.6061 24.2648 31.499 24.4789 31.3384C24.4789 31.5525 24.5325 31.7667 24.4789 31.9808C24.4254 34.0684 23.5154 35.4067 22.9266 35.4067C22.6589 35.4067 22.3377 35.0855 22.0701 34.6037C21.6954 33.9079 21.4813 33.2655 21.4813 32.2484C21.5883 30.2143 22.4983 29.1972 23.0336 29.1972ZM31.3843 24.5936C31.4913 24.2189 31.3843 23.7372 31.1166 23.416C30.6349 22.8807 29.8319 22.8807 29.2966 23.3625L28.1725 24.3795C27.6907 24.1654 27.3695 23.8978 27.3695 23.6836C27.316 23.416 27.5837 23.0413 28.0119 22.7201C28.6543 22.2383 29.5643 21.8636 30.5813 21.7566C31.0631 21.703 31.4913 21.6495 31.9196 21.703C33.2578 21.7566 34.1678 22.2919 34.2214 22.7201C34.3284 23.3089 33.2578 24.2725 31.3843 24.5936Z" fill="white"/>
</svg>
