<svg width="73" height="88" viewBox="0 0 73 88" fill="none" xmlns="http://www.w3.org/2000/svg">
<path d="M72 36C72 64 36 88 36 88C36 88 0 64 0 36C1.42273e-07 26.4522 3.79285 17.2955 10.5442 10.5442C17.2955 3.79285 26.4522 0 36 0C45.5478 0 54.7045 3.79285 61.4558 10.5442C68.2072 17.2955 72 26.4522 72 36Z" fill="#2F80ED"/>
<path d="M35.9995 48.0003C42.6269 48.0003 47.9995 42.6277 47.9995 36.0003C47.9995 29.3729 42.6269 24.0003 35.9995 24.0003C29.3721 24.0003 23.9995 29.3729 23.9995 36.0003C23.9995 42.6277 29.3721 48.0003 35.9995 48.0003Z" fill="white"/>
<circle cx="37" cy="36" r="36" fill="#2F80ED"/>
<path d="M39.7982 42.5637H43.7124V61.718C43.7124 62.7992 44.5902 63.6757 45.6702 63.6757C46.752 63.6757 47.6279 62.7992 47.6279 61.718L47.9971 10.7034C41.0066 10.7028 39.7982 42.5637 39.7982 42.5637Z" fill="white"/>
<path d="M35.7171 10.7957C35.2024 10.7957 34.785 11.2138 34.7862 11.7278V27.8138L33.3883 27.8132V11.7278C33.3883 11.2138 32.9703 10.7963 32.4562 10.7957C31.9416 10.7957 31.5241 11.2138 31.5241 11.7278V27.8138H30.1263V11.7278C30.125 11.2138 29.7082 10.7957 29.1942 10.797C28.6783 10.7963 28.2633 11.2144 28.2621 11.7284V27.8138H26.863V11.7278C26.863 11.2138 26.4461 10.7957 25.9321 10.7963C25.4162 10.7963 25 11.2138 25 11.7284V29.469C25 29.9873 25.0764 30.4867 25.2078 30.9628C25.709 32.7714 27.0916 34.2114 28.8678 34.7878V61.7186C28.8678 62.7998 29.7455 63.6757 30.8255 63.6757C31.9061 63.6757 32.7832 62.7998 32.782 61.7186L32.7832 34.7878C34.5594 34.212 35.942 32.772 36.4432 30.9628C36.5758 30.4861 36.6498 29.9867 36.651 29.469V11.7278C36.6492 11.2138 36.2311 10.7963 35.7171 10.7957Z" fill="white"/>
</svg>
