<svg width="72" height="88" viewBox="0 0 72 88" fill="none" xmlns="http://www.w3.org/2000/svg">
<path d="M72 36C72 64 36 88 36 88C36 88 0 64 0 36C1.42273e-07 26.4522 3.79285 17.2955 10.5442 10.5442C17.2955 3.79285 26.4522 0 36 0C45.5478 0 54.7045 3.79285 61.4558 10.5442C68.2072 17.2955 72 26.4522 72 36Z" fill="#63C924"/>
<path d="M35.9995 48.0003C42.6269 48.0003 47.9995 42.6277 47.9995 36.0003C47.9995 29.3729 42.6269 24.0003 35.9995 24.0003C29.3721 24.0003 23.9995 29.3729 23.9995 36.0003C23.9995 42.6277 29.3721 48.0003 35.9995 48.0003Z" fill="white"/>
<circle cx="36" cy="36" r="36" fill="#63C924"/>
<path d="M45.2543 21.7499L20.7932 46.2109L26.0821 51.4998L50.5432 27.0387L45.2543 21.7499Z" fill="white"/>
<path d="M17.8633 51.8491L20.4812 54.467L24.782 52.8308L19.4995 47.5483L17.8633 51.8491Z" fill="white"/>
<path d="M16.1804 56.1499L18.8451 55.4487L16.8349 53.4853L16.1804 56.1499Z" fill="white"/>
<path d="M53.2049 24.3713L47.916 19.0824L46.5938 20.4047L51.8827 25.6935L53.2049 24.3713Z" fill="white"/>
<path d="M56.5239 21.0889C57.5991 20.0137 57.5991 18.2373 56.5239 17.1153L55.2149 15.8064C54.1397 14.7312 52.3633 14.7312 51.2414 15.8064L49.2312 17.7698L54.5137 23.0523L56.5239 21.0889Z" fill="white"/>
<path d="M20.0137 25.5767L29.4101 34.9731L34.6926 29.6906L25.2963 20.2942C25.2495 19.032 24.782 17.7698 23.8003 16.8349C21.7901 14.8247 18.5178 14.8247 16.5076 16.8349C14.4975 18.845 14.4975 22.1174 16.5076 24.1276C17.4893 25.0158 18.7515 25.53 20.0137 25.5767ZM17.8633 18.0971C19.1255 16.8349 21.2292 16.8349 22.4914 18.0971C23.7536 19.3593 23.7536 21.4629 22.4914 22.7251C21.2292 23.9873 19.1255 23.9873 17.8633 22.7251C16.5544 21.4629 16.5544 19.406 17.8633 18.0971Z" fill="white"/>
<path d="M56.1966 46.8938C54.5137 45.2109 52.223 44.6032 50.0726 45.0239L42.6397 37.6377L37.3572 42.9203L44.7434 50.3064C44.3226 52.4568 44.9304 54.7942 46.6133 56.4304C48.2962 58.1134 50.5869 58.7211 52.7373 58.3003L48.5767 54.1398L49.1844 51.5686L49.5584 49.839L51.2881 49.465L53.8592 48.8572L58.0198 53.0178C58.4873 50.8674 57.8328 48.53 56.1966 46.8938Z" fill="white"/>
</svg>
