<svg width="72" height="88" viewBox="0 0 72 88" fill="none" xmlns="http://www.w3.org/2000/svg">
<path d="M72 36C72 64 36 88 36 88C36 88 0 64 0 36C1.42273e-07 26.4522 3.79285 17.2955 10.5442 10.5442C17.2955 3.79285 26.4522 0 36 0C45.5478 0 54.7045 3.79285 61.4558 10.5442C68.2072 17.2955 72 26.4522 72 36Z" fill="#F0C119"/>
<path d="M35.9995 48.0003C42.6269 48.0003 47.9995 42.6277 47.9995 36.0003C47.9995 29.3729 42.6269 24.0003 35.9995 24.0003C29.3721 24.0003 23.9995 29.3729 23.9995 36.0003C23.9995 42.6277 29.3721 48.0003 35.9995 48.0003Z" fill="white"/>
<circle cx="36" cy="36" r="36" fill="#F0C119"/>
<path d="M53.9722 53.0001H19.0278C18.4602 53.0001 18 53.4975 18 54.1112V56.3334C18 56.9471 18.4602 57.4445 19.0278 57.4445H53.9722C54.5398 57.4445 55 56.9471 55 56.3334V54.1112C55 53.4975 54.5398 53.0001 53.9722 53.0001Z" fill="white"/>
<path d="M52.6875 47.5C52.6865 46.5721 52.3207 45.6824 51.6704 45.0263C51.0201 44.3701 50.1384 44.001 49.2188 44H23.7812C22.8616 44.001 21.9799 44.3701 21.3296 45.0263C20.6793 45.6824 20.3135 46.5721 20.3125 47.5V51H52.6875V47.5Z" fill="white"/>
<path d="M47.1375 16C47.1375 14.3432 45.7927 13.0001 44.1359 13.0001C39.59 13 38.2493 13.0001 36.5 13.0001C34.8438 13.0001 32.4216 13 28.8638 13C27.2069 13.0001 25.8625 14.3432 25.8625 16V42H47.1375V16Z" fill="white"/>
</svg>
