<svg width="72" height="88" viewBox="0 0 72 88" fill="none" xmlns="http://www.w3.org/2000/svg">
<path d="M72 36C72 64 36 88 36 88C36 88 0 64 0 36C1.42273e-07 26.4522 3.79285 17.2955 10.5442 10.5442C17.2955 3.79285 26.4522 0 36 0C45.5478 0 54.7045 3.79285 61.4558 10.5442C68.2072 17.2955 72 26.4522 72 36Z" fill="#2F80ED"/>
<path d="M35.9995 48.0003C42.6269 48.0003 47.9995 42.6277 47.9995 36.0003C47.9995 29.3729 42.6269 24.0003 35.9995 24.0003C29.3721 24.0003 23.9995 29.3729 23.9995 36.0003C23.9995 42.6277 29.3721 48.0003 35.9995 48.0003Z" fill="white"/>
<circle cx="36" cy="36" r="36" fill="#2F80ED"/>
<path d="M54.6255 45.3237C53.3746 45.774 51.3732 46.3244 49.1717 46.8247C48.3711 48.1257 46.9201 49.1764 44.6685 49.6267C44.1181 49.7268 43.5677 49.7768 42.9173 49.7768C41.3662 49.8269 39.5149 49.6767 37.4634 49.4766C37.3133 49.4766 37.1632 49.4766 37.0631 49.4266C36.5628 49.3765 36.1125 49.0263 36.1125 48.5259C36.0624 47.8755 36.5628 47.3751 37.2132 47.4252C37.3634 47.4252 37.5135 47.4752 37.7136 47.4752C40.3655 47.7254 42.8172 47.9255 44.4183 47.6253C47.3204 47.0749 48.171 45.3237 47.9708 43.8226C47.8207 42.6218 46.9201 41.4209 45.4691 41.571C43.4176 41.7211 41.0159 41.571 38.7143 41.3709C36.0624 41.1708 33.3105 41.1207 31.3591 41.3209C29.2076 41.571 24.8045 43.1722 20.9018 45.824C19.0004 47.125 16.899 48.676 15.598 49.5767C14.9476 50.077 14.7975 50.9777 15.2978 51.6281L20.8517 58.9833C21.3521 59.6338 22.2527 59.7338 22.8531 59.2335L24.9546 57.6323C25.455 57.2321 26.1054 57.132 26.7059 57.3321C30.5085 58.533 34.5614 59.3335 37.2132 59.4836C43.0173 59.7839 54.1251 52.929 57.3274 50.7275C60.4796 48.4759 58.178 44.0228 54.6255 45.3237Z" fill="white"/>
<path d="M30.4084 27.9615H32.4599C32.7101 28.8121 33.0103 29.6126 33.4606 30.3632L32.0096 31.7641C31.6593 32.1144 31.6593 32.6648 32.0096 33.015L34.7615 35.767C35.1118 36.1172 35.6621 36.1172 36.0124 35.767L37.4634 34.3159C38.2139 34.7162 39.0145 35.0665 39.8651 35.3166V37.3181C39.8651 37.8184 40.2654 38.2187 40.7657 38.2187H44.6184C45.1188 38.2187 45.5191 37.8184 45.5191 37.3181V35.2666C46.3697 35.0164 47.1702 34.7162 47.9208 34.2659L49.3218 35.7169C49.672 36.0672 50.2224 36.0672 50.5726 35.7169L53.3246 32.965C53.6748 32.6147 53.6748 32.0644 53.3246 31.7141L51.8735 30.3131C52.2738 29.5626 52.6241 28.762 52.8743 27.9114H54.8757C55.376 27.9114 55.7763 27.5112 55.7763 27.0108V23.1581C55.7763 22.6577 55.376 22.2575 54.8757 22.2575H52.8242C52.574 21.4069 52.2738 20.6063 51.8235 19.8558L53.2745 18.4047C53.6248 18.0545 53.6248 17.5041 53.2745 17.1539L50.5226 14.4019C50.1723 14.0517 49.622 14.0517 49.2717 14.4019L47.8707 15.903C47.1202 15.5027 46.3196 15.1525 45.469 14.9023V12.9009C45.469 12.4005 45.0688 12.0002 44.5684 12.0002H40.7157C40.2153 12.0002 39.8151 12.4005 39.8151 12.9009V14.9523C38.9645 15.2025 38.1639 15.5027 37.4134 15.953L35.9624 14.552C35.6121 14.2018 35.0617 14.2018 34.7115 14.552L31.9595 17.304C31.6093 17.6542 31.6093 18.2046 31.9595 18.5549L33.4106 20.0059C33.0103 20.7564 32.66 21.557 32.4099 22.4076H30.4084C29.9081 22.4076 29.5078 22.8078 29.5078 23.3082V27.1609C29.5078 27.5612 29.9081 27.9615 30.4084 27.9615ZM42.617 18.5549C46.2196 18.5549 49.1716 21.5069 49.1716 25.1095C49.1716 28.712 46.2196 31.6641 42.617 31.6641C39.0145 31.6641 36.0624 28.712 36.0624 25.1095C36.0624 21.5069 39.0145 18.5549 42.617 18.5549Z" fill="white"/>
<path d="M40.9158 27.9114C41.1159 28.1616 41.4161 28.2617 41.7664 28.2617C42.0666 28.2617 42.3668 28.1116 42.617 27.9114L46.3696 23.8586C46.8199 23.4083 46.7699 22.6577 46.3196 22.2575C45.8693 21.8071 45.1187 21.8572 44.7185 22.3075L41.8164 25.4597L40.6656 24.2088C40.2153 23.7585 39.5148 23.7085 39.0645 24.1588C38.6142 24.6091 38.5641 25.3096 39.0144 25.7599L40.9158 27.9114Z" fill="white"/>
</svg>
