<svg width="72" height="88" viewBox="0 0 72 88" fill="none" xmlns="http://www.w3.org/2000/svg">
<path d="M72 36C72 64 36 88 36 88C36 88 0 64 0 36C1.42273e-07 26.4522 3.79285 17.2955 10.5442 10.5442C17.2955 3.79285 26.4522 0 36 0C45.5478 0 54.7045 3.79285 61.4558 10.5442C68.2072 17.2955 72 26.4522 72 36Z" fill="#F0C119"/>
<path d="M35.9995 48.0003C42.6269 48.0003 47.9995 42.6277 47.9995 36.0003C47.9995 29.3729 42.6269 24.0003 35.9995 24.0003C29.3721 24.0003 23.9995 29.3729 23.9995 36.0003C23.9995 42.6277 29.3721 48.0003 35.9995 48.0003Z" fill="white"/>
<circle cx="36" cy="36" r="36" fill="#F0C119"/>
<path d="M37.9165 31.25V14C47.4437 14 55.1665 21.7228 55.1665 31.25H37.9165Z" fill="white"/>
<path d="M52.4277 46.6777C54.6179 47.8157 56.9685 47.7317 59 46.6777L55.1665 34.0829H16.8335L13 46.6777C15.1919 47.8157 17.5408 47.7317 19.5717 46.6777C21.2133 45.8279 23.0613 45.622 24.8651 46.1689L22.3478 53.0844C20.9862 52.6618 19.6355 52.1788 18.3026 51.6245L16.8335 55.1659C28.6791 60.0827 42.3917 60.4685 55.1665 55.1659L53.6968 51.6245C52.3645 52.1788 51.0127 52.6618 49.6522 53.0844L47.1349 46.1689C48.842 45.6525 50.6855 45.7721 52.4277 46.6777ZM26.0669 54.0717L28.4853 47.427C29.9424 47.6294 31.3948 47.3631 32.715 46.6777C34.7453 45.6261 37.0965 45.5398 39.285 46.6777C40.6719 47.3988 42.1226 47.6265 43.517 47.4304L45.9331 54.0694C39.3764 55.5316 32.6242 55.5316 26.0669 54.0717Z" fill="white"/>
</svg>
