<svg width="72" height="88" viewBox="0 0 72 88" fill="none" xmlns="http://www.w3.org/2000/svg">
<path d="M72 36C72 64 36 88 36 88C36 88 0 64 0 36C1.42273e-07 26.4522 3.79285 17.2955 10.5442 10.5442C17.2955 3.79285 26.4522 0 36 0C45.5478 0 54.7045 3.79285 61.4558 10.5442C68.2072 17.2955 72 26.4522 72 36Z" fill="#63C924"/>
<path d="M35.9995 48.0003C42.6269 48.0003 47.9995 42.6277 47.9995 36.0003C47.9995 29.3729 42.6269 24.0003 35.9995 24.0003C29.3721 24.0003 23.9995 29.3729 23.9995 36.0003C23.9995 42.6277 29.3721 48.0003 35.9995 48.0003Z" fill="white"/>
<circle cx="36" cy="36" r="36" fill="#63C924"/>
<path fill-rule="evenodd" clip-rule="evenodd" d="M48.9556 30.3978C49.9121 39.3877 42.4173 38.9676 42.4173 52.4183C42.4173 53.7568 41.3215 54.8519 39.9837 54.8519H32.0171C30.6793 54.8519 29.5842 53.7568 29.5842 52.4183C29.5842 38.9669 22.0887 39.3884 23.0459 30.3978C24.6013 15.786 47.3995 15.786 48.9556 30.3978ZM36.8068 24.1303C36.4384 23.4991 35.5695 23.4172 35.2105 24.1023L32.9047 28.5057L28.0001 29.3408C27.2949 29.4614 26.999 30.3282 27.5031 30.8438L30.983 34.402L30.2606 39.3288C30.1579 40.034 30.8947 40.579 31.5403 40.2595L36.0011 38.0492L40.4217 40.2401C41.0658 40.5999 41.8507 40.0591 41.7437 39.3288L41.0192 34.402L44.4711 30.8725C45.0096 30.3684 44.7245 29.4629 44.0021 29.3394L39.0975 28.5057L36.8068 24.1303ZM37.7238 29.7264C37.8552 29.9756 38.0936 30.1458 38.3715 30.1932L42.0238 30.8194L39.4279 33.4749C39.2361 33.6695 39.1816 34.2203 39.2189 34.4774L39.7223 37.8977L36.3953 36.2496C36.1462 36.1261 35.8553 36.1275 35.6061 36.2503L32.2792 37.8977L32.8199 34.226C32.863 33.9302 32.7546 33.6322 32.5111 33.411L29.9763 30.8187L33.6328 30.1968C33.9315 30.1465 34.1822 29.9526 34.32 29.6446L36.0011 26.4361L37.7238 29.7264ZM34.641 10.4911C34.641 8.703 37.3597 8.703 37.3597 10.4911V16.1023C37.3597 17.8896 34.641 17.8896 34.641 16.1023V10.4911ZM18.724 17.7955C17.4601 16.5317 19.3832 14.6094 20.6471 15.8739L24.6145 19.8407C25.8784 21.1053 23.9568 23.0276 22.6922 21.7638L18.724 17.7955ZM13.3419 34.509C11.5545 34.509 11.5545 31.7902 13.3419 31.7902H18.9531C20.7404 31.7902 20.7404 34.509 18.9531 34.509H13.3419ZM20.6471 50.4253C19.3832 51.6898 17.4601 49.7668 18.724 48.5029L22.6922 44.5354C23.9568 43.2716 25.8784 45.1939 24.6145 46.4578L20.6471 50.4253ZM53.2768 48.5029C54.5406 49.7668 52.6183 51.6898 51.3544 50.4253L47.3862 46.4578C46.1224 45.1939 48.0447 43.2716 49.3093 44.5354L53.2768 48.5029ZM58.6589 31.7902C60.447 31.7902 60.447 34.509 58.6589 34.509H53.0484C51.2604 34.509 51.2604 31.7902 53.0484 31.7902H58.6589ZM51.3544 15.8739C52.6183 14.6094 54.5406 16.5317 53.2768 17.7955L49.3093 21.7638C48.0447 23.0276 46.1224 21.1053 47.3862 19.8407L51.3544 15.8739ZM31.1676 56.5535H40.8332C41.6037 56.5535 42.2335 57.184 42.2335 57.9538V59.0108C42.2335 59.7806 41.6037 60.4104 40.8332 60.4104H31.1676C30.3978 60.4104 29.768 59.7806 29.768 59.0108V57.9538C29.768 57.184 30.3978 56.5535 31.1676 56.5535Z" fill="white"/>
</svg>
