<svg width="72" height="88" viewBox="0 0 72 88" fill="none" xmlns="http://www.w3.org/2000/svg">
<path d="M72 36C72 64 36 88 36 88C36 88 0 64 0 36C1.42273e-07 26.4522 3.79285 17.2955 10.5442 10.5442C17.2955 3.79285 26.4522 0 36 0C45.5478 0 54.7045 3.79285 61.4558 10.5442C68.2072 17.2955 72 26.4522 72 36Z" fill="#1EAF61"/>
<path d="M35.9995 48.0003C42.6269 48.0003 47.9995 42.6277 47.9995 36.0003C47.9995 29.3729 42.6269 24.0003 35.9995 24.0003C29.3721 24.0003 23.9995 29.3729 23.9995 36.0003C23.9995 42.6277 29.3721 48.0003 35.9995 48.0003Z" fill="white"/>
<circle cx="36" cy="36" r="36" fill="#1EAF61"/>
<path d="M54.3749 44.4519C54.3749 45.0429 54.7688 45.5025 55.2753 45.5025H55.8381C56.3446 45.5025 56.7385 45.0429 56.7385 44.4519V31.4004L54.4312 32.3852V44.4519H54.3749Z" fill="white"/>
<path d="M55.5566 47.0102C54.0934 47.0102 52.8553 49.5587 52.8553 55.0083H58.2017C58.2579 49.5587 57.0199 47.0102 55.5566 47.0102Z" fill="white"/>
<path d="M19.4675 34.1517C19.4675 36.581 19.4675 41.4396 19.4675 41.571C19.4675 47.0205 26.3896 49.3842 34.9437 49.3842C43.4978 49.3842 50.4199 46.9548 50.4199 41.571C50.4199 41.374 50.4199 40.5204 50.4199 40.1922V34.086L34.9437 40.3235L19.4675 34.1517Z" fill="white"/>
<path d="M34.9437 38.4194L58.6373 28.2698C59.4756 27.9107 59.4351 26.7088 58.5745 26.4069L35.283 18.2374C34.8454 18.0839 34.368 18.0873 33.9325 18.247L11.3731 26.5188C10.5222 26.8309 10.492 28.0233 11.3261 28.378L34.9437 38.4194Z" fill="white"/>
</svg>
