<svg width="72" height="88" viewBox="0 0 72 88" fill="none" xmlns="http://www.w3.org/2000/svg">
<path d="M72 36C72 64 36 88 36 88C36 88 0 64 0 36C1.42273e-07 26.4522 3.79285 17.2955 10.5442 10.5442C17.2955 3.79285 26.4522 0 36 0C45.5478 0 54.7045 3.79285 61.4558 10.5442C68.2072 17.2955 72 26.4522 72 36Z" fill="#63C924"/>
<path d="M35.9995 48.0003C42.6269 48.0003 47.9995 42.6277 47.9995 36.0003C47.9995 29.3729 42.6269 24.0003 35.9995 24.0003C29.3721 24.0003 23.9995 29.3729 23.9995 36.0003C23.9995 42.6277 29.3721 48.0003 35.9995 48.0003Z" fill="white"/>
<circle cx="36" cy="36" r="36" fill="#63C924"/>
<path d="M58.3682 39.4867H37.7705C37.5275 39.4862 37.287 39.4377 37.0627 39.3442C36.8385 39.2507 36.6348 39.114 36.4634 38.9418C36.292 38.7696 36.1562 38.5653 36.0637 38.3406C35.9713 38.1159 35.924 37.8752 35.9245 37.6322V34.9085H43.7945C44.7744 34.9073 45.7139 34.5176 46.4068 33.8246C47.0997 33.1317 47.4895 32.1923 47.4906 31.2123V23.4328H58.3639C58.538 23.4329 58.7085 23.4821 58.8559 23.5748C59.0032 23.6674 59.1214 23.7998 59.1969 23.9566C59.2724 24.1135 59.3021 24.2884 59.2827 24.4614C59.2632 24.6344 59.1953 24.7983 59.0868 24.9345L54.7926 30.3173C54.5292 30.644 54.3856 31.0509 54.3856 31.4705C54.3856 31.8901 54.5292 32.297 54.7926 32.6237L59.0954 37.9979C59.202 38.134 59.2682 38.2973 59.2864 38.4693C59.3045 38.6412 59.2739 38.8147 59.198 38.97C59.1222 39.1254 59.0041 39.2562 58.8574 39.3476C58.7106 39.439 58.5411 39.4872 58.3682 39.4867ZM43.7945 33.0626C44.0374 33.0626 44.278 33.0147 44.5025 32.9217C44.727 32.8287 44.931 32.6925 45.1028 32.5206C45.2746 32.3488 45.4109 32.1449 45.5039 31.9204C45.5968 31.6959 45.6447 31.4553 45.6447 31.2123V18.8502C45.6447 18.3595 45.4498 17.8889 45.1028 17.5419C44.7558 17.1949 44.2852 17 43.7945 17H20.8645C20.3746 17 19.9046 17.1943 19.5578 17.5404C19.2109 17.8865 19.0155 18.356 19.0143 18.8459V56.9133C19.012 57.0359 19.0341 57.1577 19.0793 57.2716C19.1245 57.3856 19.1919 57.4894 19.2776 57.5771C19.3633 57.6647 19.4655 57.7345 19.5784 57.7823C19.6913 57.8302 19.8125 57.8551 19.9351 57.8556H22.448C22.6934 57.8556 22.9287 57.7581 23.1022 57.5847C23.2756 57.4112 23.3731 57.1759 23.3731 56.9305V33.9791C23.3731 33.8569 23.3973 33.7358 23.4443 33.623C23.4914 33.5102 23.5603 33.4079 23.6471 33.3219C23.7339 33.2358 23.8369 33.1679 23.9502 33.1219C24.0634 33.0759 24.1846 33.0528 24.3068 33.054H43.7945V33.0626Z" fill="white"/>
</svg>
