<svg width="72" height="88" viewBox="0 0 72 88" fill="none" xmlns="http://www.w3.org/2000/svg">
<path d="M72 36C72 64 36 88 36 88C36 88 0 64 0 36C1.42273e-07 26.4522 3.79285 17.2955 10.5442 10.5442C17.2955 3.79285 26.4522 0 36 0C45.5478 0 54.7045 3.79285 61.4558 10.5442C68.2072 17.2955 72 26.4522 72 36Z" fill="#F0C119"/>
<path d="M35.9995 48.0003C42.6269 48.0003 47.9995 42.6277 47.9995 36.0003C47.9995 29.3729 42.6269 24.0003 35.9995 24.0003C29.3721 24.0003 23.9995 29.3729 23.9995 36.0003C23.9995 42.6277 29.3721 48.0003 35.9995 48.0003Z" fill="white"/>
<circle cx="36" cy="36" r="36" fill="#F0C119"/>
<path fill-rule="evenodd" clip-rule="evenodd" d="M48.4947 47.4503C48.4947 48.5823 47.577 49.4999 46.445 49.4999H26.555C25.423 49.4999 24.5053 48.5823 24.5053 47.4503C24.5053 46.3182 25.423 45.4006 26.555 45.4006H46.445C47.577 45.4006 48.4947 46.3182 48.4947 47.4503ZM24.716 37.4958C24.3193 37.8755 23.8085 38.0647 23.2995 38.0647C22.7597 38.0647 22.2204 37.8521 21.8181 37.4315C21.0354 36.6135 21.0644 35.3162 21.8824 34.5342L24.3199 32.202L21.5034 29.5072C20.6854 28.7245 20.6564 27.4272 21.439 26.6092C22.2211 25.7906 23.5183 25.7623 24.337 26.5456L27.2847 29.3653L30.2324 26.5456C31.0498 25.7623 32.3477 25.7906 33.1303 26.6092C33.913 27.4272 33.884 28.7245 33.066 29.5072L30.2495 32.202L32.687 34.5342C33.505 35.3162 33.534 36.6135 32.7513 37.4315C32.3483 37.8521 31.8097 38.0647 31.2699 38.0647C30.7603 38.0647 30.2501 37.8755 29.8534 37.4958L27.2847 35.0381L24.716 37.4958ZM51.4966 29.5072L48.6801 32.202L51.1176 34.5342C51.9356 35.3162 51.964 36.6135 51.1813 37.4315C50.7789 37.8521 50.2403 38.0647 49.7005 38.0647C49.1909 38.0647 48.6807 37.8755 48.284 37.4958L45.7153 35.0381L43.1466 37.4958C42.7493 37.8755 42.2391 38.0647 41.7295 38.0647C41.1896 38.0647 40.6511 37.8521 40.2487 37.4315C39.466 36.6135 39.4944 35.3162 40.3124 34.5342L42.7505 32.202L39.934 29.5072C39.116 28.7245 39.087 27.4272 39.8697 26.6092C40.6517 25.7906 41.9496 25.7623 42.7676 26.5456L45.7153 29.3653L48.663 26.5456C49.4798 25.7623 50.7777 25.7906 51.5603 26.6092C52.3436 27.4272 52.3146 28.7245 51.4966 29.5072ZM36.5 58.878C24.161 58.878 14.122 48.8396 14.122 36.5C14.122 24.161 24.161 14.122 36.5 14.122C48.839 14.122 58.878 24.161 58.878 36.5C58.878 48.8396 48.839 58.878 36.5 58.878ZM36.5 10C21.8641 10 10 21.8647 10 36.5C10 51.1359 21.8641 63 36.5 63C51.1353 63 63 51.1359 63 36.5C63 21.8647 51.1353 10 36.5 10Z" fill="white"/>
</svg>
