<svg width="72" height="88" viewBox="0 0 72 88" fill="none" xmlns="http://www.w3.org/2000/svg">
<path d="M72 36C72 64 36 88 36 88C36 88 0 64 0 36C1.42273e-07 26.4522 3.79285 17.2955 10.5442 10.5442C17.2955 3.79285 26.4522 0 36 0C45.5478 0 54.7045 3.79285 61.4558 10.5442C68.2072 17.2955 72 26.4522 72 36Z" fill="#2F80ED"/>
<path d="M35.9995 48.0003C42.6269 48.0003 47.9995 42.6277 47.9995 36.0003C47.9995 29.3729 42.6269 24.0003 35.9995 24.0003C29.3721 24.0003 23.9995 29.3729 23.9995 36.0003C23.9995 42.6277 29.3721 48.0003 35.9995 48.0003Z" fill="white"/>
<circle cx="36" cy="36" r="36" fill="#2F80ED"/>
<path d="M61.9444 38.1079C61.6633 37.6889 61.4482 37.4212 60.9905 37.0448L53.5466 30.5701C52.668 29.8068 51.3651 29.8127 50.3832 30.5009V17.6687C50.3832 17.299 50.0835 16.9999 49.7145 16.9999H23.2862C22.9171 16.9999 22.6174 17.2997 22.6174 17.6687V30.5015C21.6355 29.8128 20.3319 29.8068 19.4533 30.5708L12.0234 37.0335C11.5525 37.4212 11.3366 37.6889 11.0562 38.1086C10.5 38.9426 10.5 39.63 10.5 40.3694V47.3916C10.5 49.7577 12.6009 51.6821 15.1835 51.6821H30.1099C31.3675 51.6821 32.3907 50.6576 32.3907 49.4007C32.3907 48.8731 32.2108 48.3882 31.9104 48.0018H33.7895C35.0472 48.0018 36.071 46.978 36.071 45.7204C36.071 45.3793 35.9937 45.0562 35.8578 44.7651H37.1428C37.0076 45.0562 36.931 45.3786 36.931 45.7204C36.931 46.9787 37.9535 48.0018 39.2118 48.0018H41.0909C40.7898 48.3882 40.6093 48.8738 40.6093 49.4007C40.6093 50.6576 41.6331 51.6821 42.8914 51.6821H57.8165C60.399 51.6821 62.5 49.757 62.5 47.3916V40.3574C62.5006 39.63 62.5006 38.9426 61.9444 38.1079ZM50.3832 35.0524L51.5649 36.0796H50.3832V35.0524ZM23.9556 18.3382H49.0457V36.0796H40.5493C39.2917 36.0796 38.2679 37.1028 38.2679 38.3604C38.2679 38.8873 38.4484 39.3729 38.7495 39.7599H38.5423C38.4431 39.7599 38.3445 39.7686 38.2485 39.7806C38.2219 39.7839 38.1966 39.7886 38.1699 39.7926C38.092 39.8059 38.0147 39.8225 37.9388 39.8432C37.9215 39.8478 37.9028 39.8512 37.8855 39.8572C37.7956 39.8845 37.7077 39.9171 37.6224 39.9544C37.6024 39.9637 37.5824 39.9737 37.5624 39.9831C37.4945 40.0157 37.4299 40.051 37.3659 40.089C37.3453 40.1016 37.3246 40.1136 37.3047 40.1263C37.2274 40.1762 37.1521 40.2302 37.0822 40.2888C37.0715 40.2975 37.0622 40.3075 37.0522 40.3161C36.9916 40.3681 36.9343 40.424 36.8803 40.482C36.8624 40.5013 36.8444 40.52 36.8277 40.5399C36.7738 40.6012 36.7225 40.6658 36.6752 40.7331C36.6692 40.7424 36.6612 40.7504 36.6559 40.7598C36.6046 40.835 36.5586 40.9156 36.5153 40.9969C36.5106 41.0062 36.5046 41.0142 36.5006 41.0235C36.496 41.0142 36.49 41.0062 36.486 40.9969C36.4434 40.915 36.3974 40.835 36.3454 40.7598C36.3394 40.7504 36.3315 40.7424 36.3261 40.7331C36.2788 40.6658 36.2282 40.6019 36.1736 40.5399C36.1569 40.5206 36.1383 40.5013 36.121 40.482C36.0663 40.4247 36.0097 40.3687 35.9491 40.3161C35.9384 40.3075 35.9291 40.2975 35.9198 40.2888C35.8492 40.2302 35.7739 40.1762 35.6966 40.1263C35.6767 40.113 35.656 40.101 35.6354 40.089C35.5721 40.0503 35.5061 40.0157 35.4395 39.9831C35.4189 39.9731 35.3996 39.9631 35.3789 39.9544C35.2936 39.9171 35.2064 39.8838 35.1164 39.8572C35.0985 39.8518 35.0811 39.8485 35.0632 39.8432C34.9872 39.8225 34.91 39.8059 34.832 39.7926C34.806 39.7886 34.7801 39.7839 34.7534 39.7806C34.6575 39.7686 34.5596 39.7599 34.4597 39.7599H34.2532C34.5542 39.3729 34.7341 38.8873 34.7341 38.3604C34.7341 37.1028 33.7109 36.0796 32.4526 36.0796H23.9556V18.3382ZM22.618 36.0796H21.4364L22.618 35.0518V36.0796ZM33.7895 46.6629H24.306C23.9363 46.6629 23.6372 46.9627 23.6372 47.3317V47.391C23.6372 47.4902 23.6305 47.5941 23.6166 47.7074C23.5932 47.8972 23.6532 48.0891 23.7798 48.2316C23.907 48.3748 24.0895 48.4574 24.2807 48.4574H30.1092C30.6295 48.4574 31.0525 48.8798 31.0525 49.4C31.0525 49.9196 30.6295 50.3426 30.1092 50.3426H15.1835C13.339 50.3426 11.8382 49.019 11.8382 47.391V40.3574C11.8382 39.706 11.8382 39.3476 12.1693 38.8513C12.3758 38.5422 12.513 38.3637 12.888 38.054L20.3319 31.58C20.8242 31.151 21.6342 31.2749 22.1364 31.8531C22.6394 32.4319 22.6487 33.2506 22.1571 33.6782L19.2082 36.2441C18.9977 36.4273 18.9224 36.7217 19.0203 36.9829C19.1176 37.244 19.3674 37.4178 19.6472 37.4178H23.2862H27.8687H32.4513C32.9715 37.4178 33.3945 37.8402 33.3945 38.3604C33.3945 38.88 32.9715 39.3036 32.4513 39.3036H24.2813C24.0902 39.3036 23.9077 39.3856 23.7811 39.5281C23.6539 39.6713 23.5946 39.8618 23.6172 40.0517C23.6312 40.1682 23.6379 40.2728 23.6379 40.3701V40.4287C23.6379 40.7984 23.9376 41.0975 24.3067 41.0975H34.4583C34.9786 41.0975 35.4022 41.5198 35.4022 42.04C35.4022 42.5603 34.9792 42.9833 34.4583 42.9833H24.306C23.9363 42.9833 23.6372 43.283 23.6372 43.6521V44.0957L23.6379 44.1023C23.6379 44.1023 23.6372 44.1063 23.6372 44.109C23.6372 44.478 23.9363 44.7778 24.306 44.7778H33.7895C34.3098 44.7778 34.7328 45.2008 34.7328 45.7204C34.7328 46.2399 34.3098 46.6629 33.7895 46.6629ZM61.1624 47.391C61.1624 49.019 59.6616 50.3426 57.8171 50.3426H42.8914C42.3712 50.3426 41.9482 49.9196 41.9482 49.4C41.9482 48.8798 42.3712 48.4574 42.8914 48.4574H48.7199C48.9111 48.4574 49.0936 48.3748 49.2209 48.2316C49.3474 48.0891 49.4067 47.8972 49.3841 47.7074C49.3701 47.5941 49.3634 47.4909 49.3634 47.391V47.3317C49.3634 46.962 49.0643 46.6629 48.6946 46.6629H39.2118C38.6915 46.6629 38.2685 46.2399 38.2685 45.7197C38.2685 45.2001 38.6915 44.7771 39.2118 44.7771H48.6946C49.0643 44.7771 49.3634 44.4774 49.3634 44.1083V44.095V43.6514C49.3634 43.2824 49.0643 42.9826 48.6946 42.9826H38.543C38.0227 42.9826 37.5991 42.5596 37.5991 42.0394C37.5991 41.5198 38.0227 41.0968 38.543 41.0968H48.694C49.0637 41.0968 49.3628 40.7971 49.3628 40.428V40.3694C49.3628 40.2722 49.3701 40.1676 49.3834 40.051C49.406 39.8612 49.3468 39.6707 49.2202 39.5274C49.0936 39.3842 48.9105 39.303 48.7199 39.303H40.5493C40.0291 39.303 39.6061 38.88 39.6061 38.3597C39.6061 37.8395 40.0291 37.4172 40.5493 37.4172H49.7145H53.3535C53.6319 37.4172 53.8824 37.2433 53.9796 36.9822C54.0775 36.7211 54.0029 36.4267 53.7924 36.2435L50.8429 33.6776C50.3513 33.2499 50.3599 32.4306 50.8622 31.8524C51.3664 31.2736 52.1764 31.1517 52.6687 31.5786L60.1252 38.0646C60.4869 38.3624 60.6235 38.5409 60.8307 38.8493C61.1617 39.3463 61.1617 39.7046 61.1617 40.3674L61.1624 47.391Z" fill="white"/>
<path d="M23.9556 18.3382H49.0457V36.0796H40.5493C39.2917 36.0796 38.2679 37.1028 38.2679 38.3604C38.2679 38.8873 38.4484 39.3729 38.7495 39.7599H38.5423C38.4431 39.7599 38.3445 39.7686 38.2485 39.7806C38.2219 39.7839 38.1966 39.7886 38.1699 39.7926C38.092 39.8059 38.0147 39.8225 37.9388 39.8432C37.9215 39.8478 37.9028 39.8512 37.8855 39.8572C37.7956 39.8845 37.7077 39.9171 37.6224 39.9544C37.6024 39.9637 37.5824 39.9737 37.5624 39.9831C37.4945 40.0157 37.4299 40.051 37.3659 40.089C37.3453 40.1016 37.3246 40.1136 37.3047 40.1263C37.2274 40.1762 37.1521 40.2302 37.0822 40.2888C37.0715 40.2975 37.0622 40.3075 37.0522 40.3161C36.9916 40.3681 36.9343 40.424 36.8803 40.482C36.8624 40.5013 36.8444 40.52 36.8277 40.5399C36.7738 40.6012 36.7225 40.6658 36.6752 40.7331C36.6692 40.7424 36.6612 40.7504 36.6559 40.7598C36.6046 40.835 36.5586 40.9156 36.5153 40.9969C36.5106 41.0062 36.5046 41.0142 36.5006 41.0235C36.496 41.0142 36.49 41.0062 36.486 40.9969C36.4434 40.915 36.3974 40.835 36.3454 40.7598C36.3394 40.7504 36.3315 40.7424 36.3261 40.7331C36.2788 40.6658 36.2282 40.6019 36.1736 40.5399C36.1569 40.5206 36.1383 40.5013 36.121 40.482C36.0663 40.4247 36.0097 40.3687 35.9491 40.3161C35.9384 40.3075 35.9291 40.2975 35.9198 40.2888C35.8492 40.2302 35.7739 40.1762 35.6966 40.1263C35.6767 40.113 35.656 40.101 35.6354 40.089C35.5721 40.0503 35.5061 40.0157 35.4395 39.9831C35.4189 39.9731 35.3996 39.9631 35.3789 39.9544C35.2936 39.9171 35.2064 39.8838 35.1164 39.8572C35.0985 39.8518 35.0811 39.8485 35.0632 39.8432C34.9872 39.8225 34.91 39.8059 34.832 39.7926C34.806 39.7886 34.7801 39.7839 34.7534 39.7806C34.6575 39.7686 34.5596 39.7599 34.4597 39.7599H34.2532C34.5542 39.3729 34.7341 38.8873 34.7341 38.3604C34.7341 37.1028 33.7109 36.0796 32.4526 36.0796H23.9556V18.3382Z" fill="white"/>
</svg>
